<svg width="1615" height="188" fill="none" xmlns="http://www.w3.org/2000/svg">
    <path
        d="M48.991 1.155C39.125 2.89 26.058 9.69 18.325 17.022c-19.2 18.133-23.734 45.733-11.6 69.6 3.866 7.467 16.266 20.4 22.4 23.333l4.933 2.4-5.067 1.067c-11.2 2.4-22.8 11.6-26.933 21.333-1.067 2.8-2 8.934-2 14.134 0 11.333 4.133 20.533 12.933 28.133 10.4 9.2 13.334 9.733 60 9.2l41.067-.4 11.467-5.6c30.933-15.2 43.6-47.867 29.733-77.067-4.267-9.066-15.067-20.4-22.933-23.866l-5.6-2.534 7.6-3.066c9.6-4 16-9.2 21.066-17.2 5.467-8.8 6.267-22.4 2-32.4-3.466-8-12.133-16.667-21.066-20.667-5.867-2.8-8.4-2.933-43.6-3.2C72.19.089 52.458.489 48.99 1.155zm80.534 10.8c11.733 3.6 19.866 14.667 19.866 26.8 0 8.934-4 16.134-11.733 21.734l-5.867 4-60.533.4-60.533.4-.134-3.067c-.666-14.533 3.334-25.6 12.667-35.467 7.067-7.466 15.867-12.8 24.4-14.8 7.733-1.866 75.733-1.733 81.867 0zm20.266 118.934c-.666 18.8-16 36.933-36.266 42.8-5.867 1.733-14.534 2.133-45.067 2.133-34.8 0-38.267-.267-42.933-2.533-8.934-4.667-16.134-15.334-16.134-24.134 0-5.2 3.334-12.666 7.6-17.466 8-8.934 9.334-9.067 75.067-8.8l58 .266-.267 7.734zM179.832 2.298c-1.867 1.867-2.267 179.2-.4 182.134 2.933 4.666 8.133.533 41.6-32.134l33.733-32.933 34.133 34c18.8 18.667 34.667 34 35.467 34 .667 0 2.667-.933 4.267-2.133l2.933-2v-89.2c0-79.2-.267-89.334-2.133-91.2-1.067-1.2-3.067-2.134-4.267-2.134-2.4.134-14.267 11.2-49.867 46.4l-20.933 20.8-33.867-33.6c-33.2-33.066-36.8-35.866-40.666-32zm140.4 166.267c-1.067.933-55.734-53.867-60.134-60.133-4.266-6.134-5.466-14.934-3.2-23.334 1.467-5.866 4.4-9.2 32.534-36.666l30.8-30.267.4 74.8c.133 41.2 0 75.2-.4 75.6zM425.157 3.267c-1.2 1.733-6.933 14.266-12.8 27.6-40.133 91.466-61.467 141.066-62.8 145.466-3.067 10.267-8.4 9.6 80.4 10 57.2.134 79.6-.133 80.8-1.2 3.333-2.666 2-7.333-8.667-31.466-5.733-13.067-22.666-52-37.466-86.4-14.934-34.534-28-63.734-29.067-65.067-2.933-3.333-7.867-2.8-10.4 1.067zm20.133 46.666c7.2 16.8 19.734 46 28 64.667 16.8 38 26 59.467 26 60.533 0 .534-30.933.8-68.666.8-43.6 0-68.667-.533-68.667-1.333 0-.667 1.6-4.667 3.467-8.933 4-9.067 17.466-40 28.4-65.734 7.733-17.866 18.133-41.733 28.4-64.666 2.933-6.667 5.866-13.467 6.666-15.2.667-1.867 1.6-2.667 2.267-2 .533.666 6.933 14.933 14.133 31.866z"
        fill="#000" />
    <path
        d="M421.125 100.365c-15.467 3.867-26.267 19.467-24.667 35.333 1.867 17.867 15.6 30.534 32.933 30.534 19.2.133 34.8-15.334 34.667-34.4-.133-10.667-8.533-23.467-18.933-28.934-5.867-3.066-17.2-4.266-24-2.533zM526.332 107.417c1.6 1.6 6.666 1.867 30.933 1.333 16-.266 29.733-.8 30.667-1.066 2.4-.8 3.6-9.734 1.866-13.467l-1.466-3.2h-30.4c-21.867 0-30.8.4-32 1.6-2.267 2.267-2 12.533.4 14.8zM1182.5 7.857c-10.27 10.274-8.43 22.654 4.48 29.24 14.75 7.64 31.08-1.054 31.08-16.596 0-18.176-22.13-26.342-35.56-12.644zM891.678 7.594c-2.107 2.37-2.898 28.186-2.371 88.774l.791 85.349h31.61l.791-85.35c.527-60.587-.264-86.403-2.371-88.773-1.581-2.108-7.903-3.688-14.225-3.688s-12.644 1.58-14.225 3.688zM636.157 13.39c-20.021 10.01-27.923 23.18-27.923 45.572.263 29.503 9.746 39.25 51.104 52.684 27.923 9.22 34.508 13.699 34.508 24.236 0 18.439-32.664 22.917-59.27 7.902l-15.015-8.429-7.64 7.112c-11.327 10.801-12.117 16.069-3.424 25.025 15.279 16.069 55.846 23.182 83.506 15.016 23.971-7.113 41.357-34.246 37.669-58.217-3.951-24.235-16.069-34.772-53.212-45.573-26.605-7.902-32.664-12.117-32.664-22.127 0-17.65 27.923-22.391 52.421-8.957 15.279 8.166 17.65 7.376 25.552-9.746l4.742-10.8-5.795-5.006C700.432 5.75 659.865 1.535 636.157 13.39zM1101.36 22.872c-2.89 2.37-4.47 8.166-5 17.913-.79 14.488-.79 14.488-10.01 15.805-7.9 1.054-9.22 2.371-10.01 8.957-1.58 13.961 1.32 19.493 10.8 20.547l8.43.79 1.32 38.197c1.84 50.84 5.53 56.636 37.4 59.797 23.18 2.107 28.45-1.054 28.45-16.332 0-12.908-2.63-15.542-15.28-16.069-13.69-.527-15.01-3.425-15.01-36.089V86.884l11.85-.79c15.54-1.054 18.97-4.215 17.92-17.386l-.8-10.8-14.48-1.318-14.49-1.317-.79-15.805c-.53-8.693-2.37-16.596-3.95-17.65-5.01-3.16-21.6-2.37-26.35 1.054zM780.777 57.38c-12.908 4.215-32.402 24.499-36.353 37.67-3.951 13.171-4.215 35.826-.527 48.734 3.688 13.434 21.338 32.401 34.772 37.933 14.225 5.532 42.148 5.795 55.319.263 25.552-10.8 39.777-33.191 39.777-62.168 0-28.186-12.381-48.47-36.352-59.534-14.488-6.849-39.777-8.166-56.636-2.898zm44.255 33.455c21.601 13.172 17.649 52.685-6.059 60.588-22.128 7.376-43.465-7.639-43.465-30.557 0-6.586 1.844-15.279 3.951-19.494 7.903-15.278 29.504-20.283 45.573-10.537zM946.471 59.488c-1.844 3.688-2.635 20.02-1.844 49.524.79 37.933 1.58 45.045 6.322 54.265 12.117 23.708 51.371 30.03 71.121 11.591l5.8-5.269 1.58 6.849c1.58 6.586 2.37 6.849 16.86 6.059l15.01-.79.79-60.324c.53-42.148-.26-61.378-2.37-63.75-1.58-2.107-7.64-3.687-12.9-3.687-18.71 0-18.44-.79-18.44 39.514 0 40.567-2.38 51.104-13.44 56.636-8.96 4.742-13.17 5.005-21.6 1.054-10.537-4.742-12.381-13.172-12.381-53.212 0-25.816-1.054-38.723-3.161-40.83-1.844-1.845-8.693-3.162-15.805-3.162-10.011 0-13.172 1.054-15.542 5.532zM1183.03 57.908c-3.17 3.16-3.69 13.171-2.64 61.114.53 31.611 1.58 58.744 2.11 60.588 1.58 4.742 19.23 7.112 26.6 3.688l6.33-2.898v-60.061c0-43.201-.79-60.85-3.16-63.221-4.48-4.479-24.77-3.952-29.24.79zM1271.01 57.644c-25.03 8.957-39.78 32.401-39.78 62.695.27 40.568 24.76 65.329 65.33 65.329 19.49 0 32.93-4.478 45.31-15.278 35.83-30.557 28.19-90.882-14.49-110.902-13.43-6.322-41.36-7.376-56.37-1.844zm41.88 31.875c21.87 11.327 20.81 51.367-1.31 60.851-11.59 4.741-18.18 4.741-29.24-.527-11.07-5.269-16.86-15.542-16.86-30.031 0-26.869 24.23-42.411 47.41-30.293zM1382.96 58.17c-3.68 3.425-4.21 12.645-4.21 60.325 0 30.821.79 57.953 1.58 60.324 1.32 3.161 5.53 4.215 17.12 4.215 18.71 0 17.92 2.371 18.71-47.68.79-30.557 1.58-36.88 5.53-41.357 9.48-10.274 32.4-9.484 37.67 1.317 1.31 2.634 2.9 23.181 3.69 45.572l1.31 40.831 15.02.79c20.81 1.054 21.07.264 18.96-54.529-1.58-38.723-2.63-46.099-7.37-54.528-11.33-20.02-41.36-26.08-64.01-12.908-6.06 3.688-11.33 5.532-11.33 4.214 0-5.532-8.69-10.8-18.44-10.8-5.8 0-11.85 1.844-14.23 4.215zM1536.01 59.489c-13.69 7.375-20.28 18.703-20.28 36.089 0 12.644 1.05 15.278 8.69 22.918 5.01 5.005 13.7 10.01 20.29 11.854 27.66 7.376 32.66 9.483 35.3 13.961 2.37 3.951 1.84 5.795-3.43 10.01-8.16 6.849-17.91 6.322-33.45-1.58-7.12-3.688-13.7-6.586-14.75-6.586-2.64 0-15.28 18.967-15.28 22.918 0 11.591 51.63 21.337 74.02 13.962 21.6-7.113 33.45-31.348 25.02-51.105-4.47-10.8-15.01-18.176-32.66-22.654-26.08-6.586-30.82-8.957-30.82-15.806 0-12.644 22.13-16.332 37.4-6.322 3.17 2.107 7.64 3.688 9.75 3.688 5.01 0 15.81-17.386 13.7-22.654-5.27-13.435-53.48-19.23-73.5-8.694z"
        fill="#000" />
</svg>