<svg width="800" height="800" viewBox="0 0 800 800" fill="none" xmlns="http://www.w3.org/2000/svg">
<path d="M194.267 249.333C184.4 251.067 171.333 257.867 163.6 265.2C144.4 283.333 139.867 310.933 152 334.8C155.867 342.267 168.267 355.2 174.4 358.133L179.333 360.533L174.267 361.6C163.067 364 151.467 373.2 147.333 382.933C146.267 385.733 145.333 391.867 145.333 397.067C145.333 408.4 149.467 417.6 158.267 425.2C168.667 434.4 171.6 434.933 218.267 434.4L259.333 434L270.8 428.4C301.733 413.2 314.4 380.533 300.533 351.333C296.267 342.267 285.467 330.933 277.6 327.467L272 324.933L279.6 321.867C289.2 317.867 295.6 312.667 300.667 304.667C306.133 295.867 306.933 282.267 302.667 272.267C299.2 264.267 290.533 255.6 281.6 251.6C275.733 248.8 273.2 248.667 238 248.4C217.467 248.267 197.733 248.667 194.267 249.333ZM274.8 260.133C286.533 263.733 294.667 274.8 294.667 286.933C294.667 295.867 290.667 303.067 282.933 308.667L277.067 312.667L216.533 313.067L156 313.467L155.867 310.4C155.2 295.867 159.2 284.8 168.533 274.933C175.6 267.467 184.4 262.133 192.933 260.133C200.667 258.267 268.667 258.4 274.8 260.133ZM295.067 379.067C294.4 397.867 279.067 416 258.8 421.867C252.933 423.6 244.267 424 213.733 424C178.933 424 175.467 423.733 170.8 421.467C161.867 416.8 154.667 406.133 154.667 397.333C154.667 392.133 158 384.667 162.267 379.867C170.267 370.933 171.6 370.8 237.333 371.067L295.333 371.333L295.067 379.067Z" fill="white"/>
<path d="M325.6 249.6C323.733 251.467 323.333 428.8 325.2 431.733C328.133 436.4 333.333 432.267 366.8 399.6L400.533 366.667L434.667 400.667C453.467 419.333 469.333 434.667 470.133 434.667C470.8 434.667 472.8 433.733 474.4 432.533L477.333 430.533V341.333C477.333 262.133 477.067 252 475.2 250.133C474.133 248.933 472.133 248 470.933 248C468.533 248.133 456.667 259.2 421.067 294.4L400.133 315.2L366.267 281.6C333.067 248.533 329.467 245.733 325.6 249.6ZM466 415.867C464.933 416.8 410.267 362 405.867 355.733C401.6 349.6 400.4 340.8 402.667 332.4C404.133 326.533 407.067 323.2 435.2 295.733L466 265.467L466.4 340.267C466.533 381.467 466.4 415.467 466 415.867Z" fill="white"/>
<path d="M569.867 251.333C568.667 253.067 562.933 265.6 557.067 278.933C516.933 370.4 495.6 420 494.267 424.4C491.2 434.667 485.867 434 574.667 434.4C631.867 434.533 654.267 434.267 655.467 433.2C658.8 430.533 657.467 425.867 646.8 401.733C641.067 388.667 624.133 349.733 609.333 315.333C594.4 280.8 581.333 251.6 580.267 250.267C577.333 246.933 572.4 247.467 569.867 251.333ZM590 298C597.2 314.8 609.733 344 618 362.667C634.8 400.667 644 422.133 644 423.2C644 423.733 613.067 424 575.333 424C531.733 424 506.667 423.467 506.667 422.667C506.667 422 508.267 418 510.133 413.733C514.133 404.667 527.6 373.733 538.533 348C546.267 330.133 556.667 306.267 566.933 283.333C569.867 276.667 572.8 269.867 573.6 268.133C574.267 266.267 575.2 265.467 575.867 266.133C576.4 266.8 582.8 281.067 590 298Z" fill="white"/>
<path d="M566.4 348C550.933 351.867 540.133 367.467 541.733 383.333C543.6 401.2 557.333 413.867 574.667 413.867C593.867 414 609.467 398.533 609.333 379.467C609.2 368.8 600.8 356 590.4 350.533C584.533 347.467 573.2 346.267 566.4 348Z" fill="white"/>
<path d="M438 460.667C432.8 465.867 433.733 472.133 440.267 475.467C447.733 479.333 456 474.933 456 467.067C456 457.867 444.8 453.733 438 460.667Z" fill="white"/>
<path d="M290.8 460.533C289.733 461.733 289.333 474.8 289.6 505.467L290 548.667H298H306L306.4 505.467C306.667 474.8 306.267 461.733 305.2 460.533C304.4 459.467 301.2 458.667 298 458.667C294.8 458.667 291.6 459.467 290.8 460.533Z" fill="white"/>
<path d="M161.467 463.467C151.333 468.533 147.333 475.2 147.333 486.533C147.467 501.467 152.267 506.4 173.2 513.2C187.333 517.867 190.667 520.133 190.667 525.467C190.667 534.8 174.133 537.067 160.667 529.467L153.067 525.2L149.2 528.8C143.467 534.267 143.067 536.933 147.467 541.467C155.2 549.6 175.733 553.2 189.733 549.067C201.867 545.467 210.667 531.733 208.8 519.6C206.8 507.333 200.667 502 181.867 496.533C168.4 492.533 165.333 490.4 165.333 485.333C165.333 476.4 179.467 474 191.867 480.8C199.6 484.933 200.8 484.533 204.8 475.867L207.2 470.4L204.267 467.867C194 459.6 173.467 457.467 161.467 463.467Z" fill="white"/>
<path d="M396.933 468.267C395.467 469.467 394.667 472.4 394.4 477.333C394 484.667 394 484.667 389.333 485.333C385.333 485.867 384.667 486.533 384.267 489.867C383.467 496.933 384.933 499.733 389.733 500.267L394 500.667L394.667 520C395.6 545.733 397.467 548.667 413.6 550.267C425.333 551.333 428 549.733 428 542C428 535.467 426.667 534.133 420.267 533.867C413.333 533.6 412.667 532.133 412.667 515.6V500.667L418.667 500.267C426.533 499.733 428.267 498.133 427.733 491.467L427.333 486L420 485.333L412.667 484.667L412.267 476.667C412 472.267 411.067 468.267 410.267 467.733C407.733 466.133 399.333 466.533 396.933 468.267Z" fill="white"/>
<path d="M234.667 485.733C228.133 487.867 218.267 498.133 216.267 504.8C214.267 511.467 214.133 522.933 216 529.467C217.867 536.267 226.8 545.867 233.6 548.667C240.8 551.467 254.933 551.6 261.6 548.8C274.533 543.333 281.733 532 281.733 517.333C281.733 503.067 275.467 492.8 263.333 487.2C256 483.733 243.2 483.067 234.667 485.733ZM257.067 502.667C268 509.333 266 529.333 254 533.333C242.8 537.067 232 529.467 232 517.867C232 514.533 232.933 510.133 234 508C238 500.267 248.933 497.733 257.067 502.667Z" fill="white"/>
<path d="M318.533 486.8C317.6 488.667 317.2 496.933 317.6 511.867C318 531.067 318.4 534.667 320.8 539.333C326.933 551.333 346.8 554.533 356.8 545.2L359.733 542.533L360.533 546C361.333 549.333 361.733 549.467 369.067 549.067L376.667 548.667L377.067 518.133C377.333 496.8 376.933 487.067 375.867 485.867C375.067 484.8 372 484 369.333 484C359.867 484 360 483.6 360 504C360 524.533 358.8 529.867 353.2 532.667C348.667 535.067 346.533 535.2 342.267 533.2C336.933 530.8 336 526.533 336 506.267C336 493.2 335.467 486.667 334.4 485.6C333.467 484.667 330 484 326.4 484C321.333 484 319.733 484.533 318.533 486.8Z" fill="white"/>
<path d="M438.267 486C436.667 487.6 436.4 492.667 436.933 516.933C437.2 532.933 437.733 546.667 438 547.6C438.8 550 447.733 551.2 451.467 549.467L454.667 548V517.6C454.667 495.733 454.267 486.8 453.067 485.6C450.8 483.333 440.533 483.6 438.267 486Z" fill="white"/>
<path d="M482.8 485.867C470.133 490.4 462.667 502.267 462.667 517.6C462.8 538.133 475.2 550.667 495.733 550.667C505.6 550.667 512.4 548.4 518.667 542.933C536.8 527.467 532.933 496.933 511.333 486.8C504.533 483.6 490.4 483.067 482.8 485.867ZM504 502C515.067 507.733 514.533 528 503.333 532.8C497.467 535.2 494.133 535.2 488.533 532.533C482.933 529.867 480 524.667 480 517.333C480 503.733 492.267 495.867 504 502Z" fill="white"/>
<path d="M539.467 486.133C537.6 487.867 537.333 492.533 537.333 516.667C537.333 532.267 537.733 546 538.133 547.2C538.8 548.8 540.933 549.333 546.8 549.333C556.267 549.333 555.867 550.533 556.267 525.2C556.667 509.733 557.067 506.533 559.067 504.267C563.867 499.067 575.467 499.467 578.133 504.933C578.8 506.267 579.6 516.667 580 528L580.667 548.667L588.267 549.067C598.8 549.6 598.933 549.2 597.867 521.467C597.067 501.867 596.533 498.133 594.133 493.867C588.4 483.733 573.2 480.667 561.733 487.333C558.667 489.2 556 490.133 556 489.467C556 486.667 551.6 484 546.667 484C543.733 484 540.667 484.933 539.467 486.133Z" fill="white"/>
<path d="M616.933 486.8C610 490.533 606.667 496.267 606.667 505.067C606.667 511.467 607.2 512.8 611.067 516.667C613.6 519.2 618 521.733 621.333 522.667C635.333 526.4 637.867 527.467 639.2 529.733C640.4 531.733 640.133 532.667 637.467 534.8C633.333 538.267 628.4 538 620.533 534C616.933 532.133 613.6 530.667 613.067 530.667C611.733 530.667 605.333 540.267 605.333 542.267C605.333 548.133 631.467 553.067 642.8 549.333C653.733 545.733 659.733 533.467 655.467 523.467C653.2 518 647.867 514.267 638.933 512C625.733 508.667 623.333 507.467 623.333 504C623.333 497.6 634.533 495.733 642.267 500.8C643.867 501.867 646.133 502.667 647.2 502.667C649.733 502.667 655.2 493.867 654.133 491.2C651.467 484.4 627.067 481.467 616.933 486.8Z" fill="white"/>
</svg>
