<svg width="1615" height="188" viewBox="0 0 1615 188" fill="none" xmlns="http://www.w3.org/2000/svg">
    <path
        d="M48.9912 1.15538C39.1246 2.88872 26.0579 9.68872 18.3246 17.022C-0.875437 35.1554 -5.40877 62.7554 6.72456 86.622C10.5912 94.0887 22.9912 107.022 29.1246 109.955L34.0579 112.355L28.9912 113.422C17.7912 115.822 6.19123 125.022 2.0579 134.755C0.991229 137.555 0.0578958 143.689 0.0578958 148.889C0.0578958 160.222 4.19123 169.422 12.9912 177.022C23.3912 186.222 26.3246 186.755 72.9912 186.222L114.058 185.822L125.525 180.222C156.458 165.022 169.125 132.355 155.258 103.155C150.991 94.0887 140.191 82.7554 132.325 79.2887L126.725 76.7554L134.325 73.6887C143.925 69.6887 150.325 64.4887 155.391 56.4887C160.858 47.6887 161.658 34.0887 157.391 24.0887C153.925 16.0887 145.258 7.42204 136.325 3.42204C130.458 0.622055 127.925 0.488708 92.7246 0.222046C72.1912 0.0887146 52.4579 0.488708 48.9912 1.15538ZM129.525 11.9554C141.258 15.5554 149.391 26.622 149.391 38.7554C149.391 47.6887 145.391 54.8887 137.658 60.4887L131.791 64.4887L71.2579 64.8887L10.7246 65.2887L10.5912 62.222C9.92456 47.6887 13.9246 36.622 23.2579 26.7554C30.3246 19.2887 39.1246 13.9554 47.6579 11.9554C55.3912 10.0887 123.391 10.222 129.525 11.9554ZM149.791 130.889C149.125 149.689 133.791 167.822 113.525 173.689C107.658 175.422 98.9912 175.822 68.4579 175.822C33.6579 175.822 30.1912 175.555 25.5246 173.289C16.5912 168.622 9.39123 157.955 9.39123 149.155C9.39123 143.955 12.7246 136.489 16.9912 131.689C24.9912 122.755 26.3246 122.622 92.0579 122.889L150.058 123.155L149.791 130.889Z"
        fill="white" />
    <path
        d="M179.832 2.29831C177.965 4.16498 177.565 181.498 179.432 184.432C182.365 189.098 187.565 184.965 221.032 152.298L254.765 119.365L288.898 153.365C307.698 172.032 323.565 187.365 324.365 187.365C325.032 187.365 327.032 186.432 328.632 185.232L331.565 183.232V94.0317C331.565 14.8316 331.298 4.69832 329.432 2.83165C328.365 1.63165 326.365 0.698318 325.165 0.698318C322.765 0.83165 310.898 11.8983 275.298 47.0983L254.365 67.8983L220.498 34.2983C187.298 1.23164 183.698 -1.56836 179.832 2.29831ZM320.232 168.565C319.165 169.498 264.498 114.698 260.098 108.432C255.832 102.298 254.632 93.4983 256.898 85.0983C258.365 79.2317 261.298 75.8983 289.432 48.4317L320.232 18.165L320.632 92.965C320.765 134.165 320.632 168.165 320.232 168.565Z"
        fill="white" />
    <path
        d="M425.157 3.26665C423.957 4.99997 418.224 17.5333 412.357 30.8666C372.224 122.333 350.89 171.933 349.557 176.333C346.49 186.6 341.157 185.933 429.957 186.333C487.157 186.467 509.557 186.2 510.757 185.133C514.09 182.467 512.757 177.8 502.09 153.667C496.357 140.6 479.424 101.667 464.624 67.2666C449.69 32.7333 436.624 3.53331 435.557 2.19998C432.624 -1.13336 427.69 -0.600021 425.157 3.26665ZM445.29 49.9333C452.49 66.7333 465.024 95.9333 473.29 114.6C490.09 152.6 499.29 174.067 499.29 175.133C499.29 175.667 468.357 175.933 430.624 175.933C387.024 175.933 361.957 175.4 361.957 174.6C361.957 173.933 363.557 169.933 365.424 165.667C369.424 156.6 382.89 125.667 393.824 99.9333C401.557 82.0666 411.957 58.2 422.224 35.2666C425.157 28.6 428.09 21.8 428.89 20.0666C429.557 18.2 430.49 17.4 431.157 18.0666C431.69 18.7333 438.09 33 445.29 49.9333Z"
        fill="white" />
    <path
        d="M421.125 100.365C405.658 104.232 394.858 119.832 396.458 135.698C398.325 153.565 412.058 166.232 429.391 166.232C448.591 166.365 464.191 150.898 464.058 131.832C463.925 121.165 455.525 108.365 445.125 102.898C439.258 99.8316 427.925 98.6316 421.125 100.365Z"
        fill="white" />
    <path
        d="M526.332 107.417C527.932 109.017 532.998 109.284 557.265 108.75C573.265 108.484 586.998 107.95 587.932 107.684C590.332 106.884 591.532 97.9504 589.798 94.217L588.332 91.017H557.932C536.065 91.017 527.132 91.417 525.932 92.617C523.665 94.8837 523.932 105.15 526.332 107.417Z"
        fill="white" />
    <path
        d="M1182.5 7.85691C1172.23 18.1305 1174.07 30.5114 1186.98 37.097C1201.73 44.7363 1218.06 36.0433 1218.06 20.5013C1218.06 2.325 1195.93 -5.84116 1182.5 7.85691Z"
        fill="white" />
    <path
        d="M891.678 7.59351C889.571 9.96433 888.78 35.7799 889.307 96.3675L890.098 181.717H905.903H921.708L922.499 96.3675C923.026 35.7799 922.235 9.96433 920.128 7.59351C918.547 5.48612 912.225 3.90557 905.903 3.90557C899.581 3.90557 893.259 5.48612 891.678 7.59351Z"
        fill="white" />
    <path
        d="M636.157 13.3892C616.136 23.3993 608.234 36.5705 608.234 58.9616C608.497 88.4651 617.98 98.2118 659.338 111.646C687.261 120.866 693.846 125.345 693.846 135.882C693.846 154.321 661.182 158.799 634.576 143.784L619.561 135.355L611.921 142.467C600.594 153.268 599.804 158.536 608.497 167.492C623.776 183.561 664.343 190.674 692.003 182.508C715.974 175.395 733.36 148.262 729.672 124.291C725.721 100.056 713.603 89.5188 676.46 78.7184C649.855 70.8157 643.796 66.6009 643.796 56.5908C643.796 38.9413 671.719 34.1997 696.217 47.6343C711.496 55.8005 713.867 55.0102 721.769 37.8876L726.511 27.0872L720.716 22.0822C700.432 5.74985 659.865 1.53506 636.157 13.3892Z"
        fill="white" />
    <path
        d="M1101.36 22.8719C1098.47 25.2427 1096.89 31.038 1096.36 40.7847C1095.57 55.2731 1095.57 55.2731 1086.35 56.5902C1078.45 57.6439 1077.13 58.961 1076.34 65.5466C1074.76 79.5081 1077.66 85.04 1087.14 86.0937L1095.57 86.884L1096.89 125.081C1098.73 175.921 1102.42 181.717 1134.29 184.878C1157.47 186.985 1162.74 183.824 1162.74 168.546C1162.74 155.638 1160.11 153.004 1147.46 152.477C1133.77 151.95 1132.45 149.052 1132.45 116.388V86.884L1144.3 86.0937C1159.84 85.04 1163.27 81.8789 1162.22 68.7077L1161.42 57.9073L1146.94 56.5902L1132.45 55.2731L1131.66 39.4676C1131.13 30.7746 1129.29 22.8719 1127.71 21.8182C1122.7 18.6571 1106.11 19.4474 1101.36 22.8719Z"
        fill="white" />
    <path
        d="M780.777 57.3804C767.869 61.5952 748.375 81.8789 744.424 95.0501C740.473 108.221 740.209 130.876 743.897 143.784C747.585 157.218 765.235 176.185 778.669 181.717C792.894 187.249 820.817 187.512 833.988 181.98C859.54 171.18 873.765 148.789 873.765 119.812C873.765 91.6256 861.384 71.3419 837.413 60.2781C822.925 53.4291 797.636 52.112 780.777 57.3804ZM825.032 90.8353C846.633 104.007 842.681 143.52 818.973 151.423C796.845 158.799 775.508 143.784 775.508 120.866C775.508 114.28 777.352 105.587 779.459 101.372C787.362 86.0937 808.963 81.0886 825.032 90.8353Z"
        fill="white" />
    <path
        d="M946.471 59.4879C944.627 63.1758 943.836 79.5081 944.627 109.012C945.417 146.945 946.207 154.057 950.949 163.277C963.066 186.985 1002.32 193.307 1022.07 174.868L1027.87 169.599L1029.45 176.448C1031.03 183.034 1031.82 183.297 1046.31 182.507L1061.32 181.717L1062.11 121.393C1062.64 79.2447 1061.85 60.0147 1059.74 57.6439C1058.16 55.5365 1052.1 53.956 1046.84 53.956C1028.13 53.956 1028.4 53.1657 1028.4 93.4696C1028.4 134.037 1026.02 144.574 1014.96 150.106C1006 154.848 1001.79 155.111 993.36 151.16C982.823 146.418 980.979 137.988 980.979 97.9478C980.979 72.1323 979.925 59.2245 977.818 57.1171C975.974 55.2731 969.125 53.956 962.013 53.956C952.002 53.956 948.841 55.0097 946.471 59.4879Z"
        fill="white" />
    <path
        d="M1183.03 57.9078C1179.86 61.0689 1179.34 71.0791 1180.39 119.022C1180.92 150.633 1181.97 177.766 1182.5 179.61C1184.08 184.352 1201.73 186.722 1209.1 183.298L1215.43 180.4V120.339C1215.43 77.1378 1214.64 59.4884 1212.27 57.1176C1207.79 52.6393 1187.5 53.1662 1183.03 57.9078Z"
        fill="white" />
    <path
        d="M1271.01 57.6442C1245.98 66.6006 1231.23 90.0454 1231.23 120.339C1231.5 160.907 1255.99 185.668 1296.56 185.668C1316.05 185.668 1329.49 181.19 1341.87 170.39C1377.7 139.833 1370.06 79.5084 1327.38 59.4882C1313.95 53.166 1286.02 52.1123 1271.01 57.6442ZM1312.89 89.5186C1334.76 100.846 1333.7 140.886 1311.58 150.37C1299.99 155.111 1293.4 155.111 1282.34 149.843C1271.27 144.574 1265.48 134.301 1265.48 119.812C1265.48 92.9431 1289.71 77.401 1312.89 89.5186Z"
        fill="white" />
    <path
        d="M1382.96 58.1708C1379.28 61.5954 1378.75 70.8152 1378.75 118.495C1378.75 149.316 1379.54 176.448 1380.33 178.819C1381.65 181.98 1385.86 183.034 1397.45 183.034C1416.16 183.034 1415.37 185.405 1416.16 135.354C1416.95 104.797 1417.74 98.4748 1421.69 93.9966C1431.17 83.723 1454.09 84.5133 1459.36 95.3137C1460.67 97.9479 1462.26 118.495 1463.05 140.886L1464.36 181.717L1479.38 182.507C1500.19 183.561 1500.45 182.771 1498.34 127.978C1496.76 89.2549 1495.71 81.879 1490.97 73.4495C1479.64 53.4292 1449.61 47.3704 1426.96 60.5417C1420.9 64.2296 1415.63 66.0736 1415.63 64.7564C1415.63 59.2245 1406.94 53.956 1397.19 53.956C1391.39 53.956 1385.34 55.8 1382.96 58.1708Z"
        fill="white" />
    <path
        d="M1536.01 59.4885C1522.32 66.8644 1515.73 78.1916 1515.73 95.5776C1515.73 108.222 1516.78 110.856 1524.42 118.496C1529.43 123.501 1538.12 128.506 1544.71 130.35C1572.37 137.726 1577.37 139.833 1580.01 144.311C1582.38 148.262 1581.85 150.106 1576.58 154.321C1568.42 161.17 1558.67 160.643 1543.13 152.741C1536.01 149.053 1529.43 146.155 1528.38 146.155C1525.74 146.155 1513.1 165.122 1513.1 169.073C1513.1 180.664 1564.73 190.41 1587.12 183.035C1608.72 175.922 1620.57 151.687 1612.14 131.93C1607.67 121.13 1597.13 113.754 1579.48 109.276C1553.4 102.69 1548.66 100.319 1548.66 93.4702C1548.66 80.8259 1570.79 77.1379 1586.06 87.148C1589.23 89.2554 1593.7 90.836 1595.81 90.836C1600.82 90.836 1611.62 73.45 1609.51 68.1815C1604.24 54.7468 1556.03 48.9515 1536.01 59.4885Z"
        fill="white" />
</svg>