<svg width="513" height="303" viewBox="0 0 513 303" fill="none" xmlns="http://www.w3.org/2000/svg">
<path d="M49.7755 1.33342C39.9089 3.06676 26.8422 9.86676 19.1089 17.2001C-0.0911357 35.3334 -4.62447 62.9334 7.50886 86.8001C11.3755 94.2667 23.7755 107.2 29.9089 110.133L34.8422 112.533L29.7755 113.6C18.5755 116 6.97553 125.2 2.8422 134.933C1.77553 137.733 0.842198 143.867 0.842198 149.067C0.842198 160.4 4.97553 169.6 13.7755 177.2C24.1755 186.4 27.1089 186.933 73.7755 186.4L114.842 186L126.309 180.4C157.242 165.2 169.909 132.533 156.042 103.333C151.776 94.2667 140.976 82.9334 133.109 79.4668L127.509 76.9334L135.109 73.8668C144.709 69.8668 151.109 64.6667 156.176 56.6667C161.642 47.8667 162.442 34.2668 158.176 24.2668C154.709 16.2668 146.042 7.60008 137.109 3.60008C131.242 0.800095 128.709 0.666748 93.5089 0.400085C72.9755 0.266754 53.2422 0.666748 49.7755 1.33342ZM130.309 12.1334C142.042 15.7334 150.176 26.8001 150.176 38.9334C150.176 47.8667 146.176 55.0668 138.442 60.6667L132.576 64.6667L72.0422 65.0667L11.5089 65.4668L11.3755 62.4001C10.7089 47.8667 14.7089 36.8001 24.0422 26.9334C31.1089 19.4668 39.9089 14.1334 48.4422 12.1334C56.1755 10.2668 124.176 10.4001 130.309 12.1334ZM150.576 131.067C149.909 149.867 134.576 168 114.309 173.867C108.442 175.6 99.7755 176 69.2422 176C34.4422 176 30.9755 175.733 26.3089 173.467C17.3755 168.8 10.1755 158.133 10.1755 149.333C10.1755 144.133 13.5089 136.667 17.7755 131.867C25.7755 122.933 27.1089 122.8 92.8422 123.067L150.842 123.333L150.576 131.067Z" fill="url(#paint0_linear_1_57)"/>
<path d="M181.109 1.60001C179.242 3.46667 178.842 180.8 180.709 183.733C183.642 188.4 188.842 184.267 222.309 151.6L256.042 118.667L290.176 152.667C308.976 171.333 324.842 186.667 325.642 186.667C326.309 186.667 328.309 185.733 329.909 184.533L332.842 182.533V93.3334C332.842 14.1333 332.576 4.00002 330.709 2.13335C329.642 0.93335 327.642 1.52588e-05 326.442 1.52588e-05C324.042 0.133347 312.176 11.2 276.576 46.4L255.642 67.2L221.776 33.6C188.576 0.53334 184.976 -2.26666 181.109 1.60001ZM321.509 167.867C320.442 168.8 265.776 114 261.376 107.733C257.109 101.6 255.909 92.8 258.176 84.4C259.642 78.5333 262.576 75.2 290.709 47.7334L321.509 17.4667L321.909 92.2667C322.042 133.467 321.909 167.467 321.509 167.867Z" fill="url(#paint1_linear_1_57)"/>
<path d="M425.375 3.33336C424.175 5.06668 418.442 17.6 412.575 30.9333C372.442 122.4 351.109 172 349.775 176.4C346.709 186.667 341.375 186 430.175 186.4C487.375 186.533 509.775 186.267 510.975 185.2C514.309 182.533 512.975 177.867 502.309 153.733C496.576 140.667 479.642 101.733 464.842 67.3334C449.909 32.8 436.842 3.60002 435.775 2.26669C432.842 -1.06665 427.909 -0.53331 425.375 3.33336ZM445.509 50C452.709 66.8 465.242 96 473.509 114.667C490.309 152.667 499.509 174.133 499.509 175.2C499.509 175.733 468.575 176 430.842 176C387.242 176 362.175 175.467 362.175 174.667C362.175 174 363.775 170 365.642 165.733C369.642 156.667 383.109 125.733 394.042 100C401.775 82.1333 412.175 58.2667 422.442 35.3334C425.375 28.6667 428.309 21.8667 429.109 20.1333C429.775 18.2667 430.709 17.4667 431.375 18.1333C431.909 18.8 438.309 33.0667 445.509 50Z" fill="url(#paint2_linear_1_57)"/>
<path d="M421.909 100C406.442 103.867 395.642 119.467 397.242 135.333C399.109 153.2 412.842 165.867 430.176 165.867C449.376 166 464.976 150.533 464.842 131.467C464.709 120.8 456.309 108 445.909 102.533C440.042 99.4666 428.709 98.2666 421.909 100Z" fill="url(#paint3_linear_1_57)"/>
<path d="M293.509 212.667C288.309 217.867 289.242 224.133 295.776 227.467C303.242 231.333 311.509 226.933 311.509 219.067C311.509 209.867 300.309 205.733 293.509 212.667Z" fill="url(#paint4_linear_1_57)"/>
<path d="M146.309 212.533C145.242 213.733 144.842 226.8 145.109 257.467L145.509 300.667H153.509H161.509L161.909 257.467C162.175 226.8 161.775 213.733 160.709 212.533C159.909 211.467 156.709 210.667 153.509 210.667C150.309 210.667 147.109 211.467 146.309 212.533Z" fill="url(#paint5_linear_1_57)"/>
<path d="M16.9755 215.467C6.84218 220.533 2.84218 227.2 2.84218 238.533C2.97552 253.467 7.77552 258.4 28.7089 265.2C42.8422 269.867 46.1755 272.133 46.1755 277.467C46.1755 286.8 29.6422 289.067 16.1755 281.467L8.57552 277.2L4.70885 280.8C-1.02448 286.267 -1.42448 288.933 2.97552 293.467C10.7089 301.6 31.2422 305.2 45.2422 301.067C57.3755 297.467 66.1755 283.733 64.3089 271.6C62.3089 259.333 56.1755 254 37.3755 248.533C23.9089 244.533 20.8422 242.4 20.8422 237.333C20.8422 228.4 34.9755 226 47.3755 232.8C55.1089 236.933 56.3089 236.533 60.3089 227.867L62.7089 222.4L59.7755 219.867C49.5089 211.6 28.9755 209.467 16.9755 215.467Z" fill="url(#paint6_linear_1_57)"/>
<path d="M252.442 220.267C250.976 221.467 250.176 224.4 249.909 229.333C249.509 236.667 249.509 236.667 244.842 237.333C240.842 237.867 240.176 238.533 239.776 241.867C238.976 248.933 240.442 251.733 245.242 252.267L249.509 252.667L250.176 272C251.109 297.733 252.976 300.667 269.109 302.267C280.842 303.333 283.509 301.733 283.509 294C283.509 287.467 282.176 286.133 275.776 285.867C268.842 285.6 268.176 284.133 268.176 267.6V252.667L274.176 252.267C282.042 251.733 283.776 250.133 283.242 243.467L282.842 238L275.509 237.333L268.176 236.667L267.776 228.667C267.509 224.267 266.576 220.267 265.776 219.733C263.242 218.133 254.842 218.533 252.442 220.267Z" fill="url(#paint7_linear_1_57)"/>
<path d="M90.1755 237.733C83.6422 239.867 73.7755 250.133 71.7755 256.8C69.7755 263.467 69.6422 274.933 71.5089 281.467C73.3755 288.267 82.3089 297.867 89.1089 300.667C96.3089 303.467 110.442 303.6 117.109 300.8C130.042 295.333 137.242 284 137.242 269.333C137.242 255.067 130.976 244.8 118.842 239.2C111.509 235.733 98.7089 235.067 90.1755 237.733ZM112.576 254.667C123.509 261.333 121.509 281.333 109.509 285.333C98.3089 289.067 87.5089 281.467 87.5089 269.867C87.5089 266.533 88.4422 262.133 89.5089 260C93.5089 252.267 104.442 249.733 112.576 254.667Z" fill="url(#paint8_linear_1_57)"/>
<path d="M174.042 238.8C173.109 240.667 172.709 248.933 173.109 263.867C173.509 283.067 173.909 286.667 176.309 291.333C182.442 303.333 202.309 306.533 212.309 297.2L215.242 294.533L216.042 298C216.842 301.333 217.242 301.467 224.576 301.067L232.176 300.667L232.576 270.133C232.842 248.8 232.442 239.067 231.376 237.867C230.576 236.8 227.509 236 224.842 236C215.376 236 215.509 235.6 215.509 256C215.509 276.533 214.309 281.867 208.709 284.667C204.176 287.067 202.042 287.2 197.776 285.2C192.442 282.8 191.509 278.533 191.509 258.267C191.509 245.2 190.976 238.667 189.909 237.6C188.976 236.667 185.509 236 181.909 236C176.842 236 175.242 236.533 174.042 238.8Z" fill="url(#paint9_linear_1_57)"/>
<path d="M293.776 238C292.176 239.6 291.909 244.667 292.442 268.933C292.709 284.933 293.242 298.667 293.509 299.6C294.309 302 303.242 303.2 306.976 301.467L310.176 300V269.6C310.176 247.733 309.776 238.8 308.576 237.6C306.309 235.333 296.042 235.6 293.776 238Z" fill="url(#paint10_linear_1_57)"/>
<path d="M338.309 237.867C325.642 242.4 318.176 254.267 318.176 269.6C318.309 290.133 330.709 302.667 351.242 302.667C361.109 302.667 367.909 300.4 374.176 294.933C392.309 279.467 388.442 248.933 366.842 238.8C360.042 235.6 345.909 235.067 338.309 237.867ZM359.509 254C370.576 259.733 370.042 280 358.842 284.8C352.976 287.2 349.642 287.2 344.042 284.533C338.442 281.867 335.509 276.667 335.509 269.333C335.509 255.733 347.776 247.867 359.509 254Z" fill="url(#paint11_linear_1_57)"/>
<path d="M394.976 238.133C393.109 239.867 392.842 244.533 392.842 268.667C392.842 284.267 393.242 298 393.642 299.2C394.309 300.8 396.442 301.333 402.309 301.333C411.776 301.333 411.376 302.533 411.776 277.2C412.176 261.733 412.576 258.533 414.576 256.267C419.376 251.067 430.976 251.467 433.642 256.933C434.309 258.267 435.109 268.667 435.509 280L436.176 300.667L443.776 301.067C454.309 301.6 454.442 301.2 453.376 273.467C452.576 253.867 452.042 250.133 449.642 245.867C443.909 235.733 428.709 232.667 417.242 239.333C414.176 241.2 411.509 242.133 411.509 241.467C411.509 238.667 407.109 236 402.176 236C399.242 236 396.176 236.933 394.976 238.133Z" fill="url(#paint12_linear_1_57)"/>
<path d="M472.442 238.8C465.509 242.533 462.176 248.267 462.176 257.067C462.176 263.467 462.709 264.8 466.576 268.667C469.109 271.2 473.509 273.733 476.842 274.667C490.842 278.4 493.376 279.467 494.709 281.733C495.909 283.733 495.642 284.667 492.976 286.8C488.842 290.267 483.909 290 476.042 286C472.442 284.133 469.109 282.667 468.576 282.667C467.242 282.667 460.842 292.267 460.842 294.267C460.842 300.133 486.976 305.067 498.309 301.333C509.242 297.733 515.242 285.467 510.976 275.467C508.709 270 503.376 266.267 494.442 264C481.242 260.667 478.842 259.467 478.842 256C478.842 249.6 490.042 247.733 497.776 252.8C499.376 253.867 501.642 254.667 502.709 254.667C505.242 254.667 510.709 245.867 509.642 243.2C506.976 236.4 482.576 233.467 472.442 238.8Z" fill="url(#paint13_linear_1_57)"/>
<defs>
<linearGradient id="paint0_linear_1_57" x1="0.784302" y1="94.3373" x2="161.638" y2="93.8795" gradientUnits="userSpaceOnUse">
<stop stop-color="#2E6DFF"/>
<stop offset="1" stop-color="#00FFFF"/>
</linearGradient>
<linearGradient id="paint1_linear_1_57" x1="179.493" y1="94.2142" x2="332.846" y2="93.7992" gradientUnits="userSpaceOnUse">
<stop stop-color="#2E6DFF"/>
<stop offset="1" stop-color="#00FFFF"/>
</linearGradient>
<linearGradient id="paint2_linear_1_57" x1="348.434" y1="94.1287" x2="512.595" y2="93.6523" gradientUnits="userSpaceOnUse">
<stop stop-color="#2E6DFF"/>
<stop offset="1" stop-color="#00FFFF"/>
</linearGradient>
<linearGradient id="paint3_linear_1_57" x1="397.085" y1="132.849" x2="464.844" y2="132.622" gradientUnits="userSpaceOnUse">
<stop stop-color="#2E6DFF"/>
<stop offset="1" stop-color="#00FFFF"/>
</linearGradient>
<linearGradient id="paint4_linear_1_57" x1="290.161" y1="219.137" x2="311.509" y2="219.061" gradientUnits="userSpaceOnUse">
<stop stop-color="#2E6DFF"/>
<stop offset="1" stop-color="#00FFFF"/>
</linearGradient>
<linearGradient id="paint5_linear_1_57" x1="145.029" y1="256.091" x2="161.989" y2="256.081" gradientUnits="userSpaceOnUse">
<stop stop-color="#2E6DFF"/>
<stop offset="1" stop-color="#00FFFF"/>
</linearGradient>
<linearGradient id="paint6_linear_1_57" x1="9.25005e-09" y1="257.843" x2="64.5607" y2="257.692" gradientUnits="userSpaceOnUse">
<stop stop-color="#2E6DFF"/>
<stop offset="1" stop-color="#00FFFF"/>
</linearGradient>
<linearGradient id="paint7_linear_1_57" x1="239.569" y1="261.04" x2="283.51" y2="260.964" gradientUnits="userSpaceOnUse">
<stop stop-color="#2E6DFF"/>
<stop offset="1" stop-color="#00FFFF"/>
</linearGradient>
<linearGradient id="paint8_linear_1_57" x1="70.1883" y1="269.781" x2="137.244" y2="269.559" gradientUnits="userSpaceOnUse">
<stop stop-color="#2E6DFF"/>
<stop offset="1" stop-color="#00FFFF"/>
</linearGradient>
<linearGradient id="paint9_linear_1_57" x1="172.954" y1="269.626" x2="232.657" y2="269.45" gradientUnits="userSpaceOnUse">
<stop stop-color="#2E6DFF"/>
<stop offset="1" stop-color="#00FFFF"/>
</linearGradient>
<linearGradient id="paint10_linear_1_57" x1="292.193" y1="269.476" x2="310.176" y2="269.46" gradientUnits="userSpaceOnUse">
<stop stop-color="#2E6DFF"/>
<stop offset="1" stop-color="#00FFFF"/>
</linearGradient>
<linearGradient id="paint11_linear_1_57" x1="318.176" y1="269.673" x2="385.705" y2="269.447" gradientUnits="userSpaceOnUse">
<stop stop-color="#2E6DFF"/>
<stop offset="1" stop-color="#00FFFF"/>
</linearGradient>
<linearGradient id="paint12_linear_1_57" x1="392.842" y1="268.877" x2="453.811" y2="268.69" gradientUnits="userSpaceOnUse">
<stop stop-color="#2E6DFF"/>
<stop offset="1" stop-color="#00FFFF"/>
</linearGradient>
<linearGradient id="paint13_linear_1_57" x1="460.842" y1="269.654" x2="512.359" y2="269.522" gradientUnits="userSpaceOnUse">
<stop stop-color="#2E6DFF"/>
<stop offset="1" stop-color="#00FFFF"/>
</linearGradient>
</defs>
</svg>
