<svg width="800" height="800" viewBox="0 0 800 800" fill="none" xmlns="http://www.w3.org/2000/svg">
    <rect width="800" height="800" rx="400" fill="black" />
    <path
        d="M149.348 281.714C137.395 283.943 121.566 292.686 112.198 302.114C88.9395 325.429 83.4478 360.914 98.1461 391.6C102.83 401.2 117.851 417.829 125.281 421.6L131.258 424.686L125.12 426.057C111.552 429.143 97.5 440.971 92.4929 453.486C91.2008 457.086 90.0701 464.971 90.0701 471.657C90.0701 486.229 95.0772 498.057 105.738 507.829C118.336 519.657 121.889 520.343 178.421 519.657L228.169 519.143L242.06 511.943C279.532 492.4 294.877 450.4 278.079 412.857C272.91 401.2 259.827 386.629 250.297 382.171L243.513 378.914L252.72 374.971C264.349 369.829 272.102 363.143 278.24 352.857C284.862 341.543 285.832 324.057 280.663 311.2C276.463 300.914 265.965 289.771 255.143 284.629C248.036 281.029 244.967 280.857 202.326 280.514C177.452 280.343 153.547 280.857 149.348 281.714ZM246.905 295.6C261.119 300.229 270.972 314.457 270.972 330.057C270.972 341.543 266.126 350.8 256.758 358L249.651 363.143L176.321 363.657L102.992 364.171L102.83 360.229C102.023 341.543 106.868 327.314 118.174 314.629C126.735 305.029 137.395 298.171 147.733 295.6C157.101 293.2 239.476 293.371 246.905 295.6ZM271.456 448.514C270.649 472.686 252.074 496 227.523 503.543C220.416 505.771 209.917 506.286 172.93 506.286C130.773 506.286 126.574 505.943 120.92 503.029C110.099 497.029 101.376 483.314 101.376 472C101.376 465.314 105.414 455.714 110.583 449.543C120.274 438.057 121.889 437.886 201.518 438.229L271.779 438.571L271.456 448.514Z"
        fill="white" />
    <path
        d="M308.444 282.057C306.183 284.457 305.698 512.457 307.96 516.229C311.513 522.229 317.812 516.914 358.354 474.914L399.218 432.571L440.567 476.286C463.341 500.286 482.562 520 483.531 520C484.339 520 486.762 518.8 488.7 517.257L492.253 514.686V400C492.253 298.171 491.93 285.143 489.669 282.743C488.377 281.2 485.954 280 484.5 280C481.593 280.171 467.218 294.4 424.092 339.657L398.734 366.4L357.708 323.2C317.489 280.686 313.128 277.086 308.444 282.057ZM478.524 495.829C477.232 497.029 411.009 426.571 405.679 418.514C400.51 410.629 399.057 399.314 401.802 388.514C403.579 380.971 407.133 376.686 441.213 341.371L478.524 302.457L479.009 398.629C479.17 451.6 479.009 495.314 478.524 495.829Z"
        fill="white" />
    <path
        d="M604.348 284.286C602.894 286.514 595.949 302.629 588.842 319.771C540.224 437.371 514.381 501.143 512.766 506.8C509.051 520 502.59 519.143 610.162 519.657C679.454 519.829 706.589 519.486 708.043 518.114C712.081 514.686 710.466 508.686 697.544 477.657C690.599 460.857 670.086 410.8 652.157 366.571C634.067 322.171 618.238 284.629 616.946 282.914C613.393 278.629 607.416 279.314 604.348 284.286ZM628.737 344.286C637.459 365.886 652.642 403.429 662.656 427.429C683.007 476.286 694.152 503.886 694.152 505.257C694.152 505.943 656.68 506.286 610.97 506.286C558.153 506.286 527.787 505.6 527.787 504.571C527.787 503.714 529.726 498.571 531.987 493.086C536.832 481.429 553.146 441.657 566.39 408.571C575.759 385.6 588.357 354.914 600.794 325.429C604.348 316.857 607.901 308.114 608.87 305.886C609.678 303.486 610.808 302.457 611.616 303.314C612.262 304.171 620.015 322.514 628.737 344.286Z"
        fill="white" />
    <path
        d="M600.148 408.571C581.412 413.543 568.329 433.6 570.267 454C572.528 476.971 589.165 493.257 610.162 493.257C633.421 493.429 652.319 473.543 652.157 449.029C651.996 435.314 641.82 418.857 629.222 411.829C622.115 407.886 608.386 406.343 600.148 408.571Z"
        fill="white" />
</svg>