<svg width="75" height="75" fill="none" xmlns="http://www.w3.org/2000/svg">
    <path
        d="M71.875 38.266c0-2.828-.234-4.891-.737-7.032H38.2v12.76h19.331c-.387 3.169-2.49 7.944-7.169 11.153l-.065.425 10.412 7.906.72.069c6.63-5.994 10.446-14.819 10.446-25.281z"
        fill="white" />
    <path
        d="M38.203 71.875c9.469 0 17.419-3.056 23.228-8.328l-11.069-8.4c-2.962 2.025-6.937 3.437-12.159 3.437a21.078 21.078 0 01-19.956-14.287l-.413.034-10.828 8.213-.14.387c5.768 11.228 17.618 18.944 31.337 18.944z"
        fill="white" />
    <path
        d="M18.25 44.297a20.782 20.782 0 01-1.178-6.797c0-2.368.431-4.659 1.128-6.797l-.019-.459L7.22 21.9l-.36.17A33.847 33.847 0 003.125 37.5c0 5.538 1.362 10.772 3.74 15.432l11.385-8.635z"
        fill="white" />
    <path
        d="M38.203 16.416c6.588 0 11.028 2.787 13.563 5.118l9.897-9.471c-6.079-5.538-13.991-8.938-23.46-8.938-13.722 0-25.569 7.716-31.337 18.944l11.343 8.634a21.156 21.156 0 0119.994-14.287z"
        fill="white" />
</svg>