<svg width="80" height="80" fill="none" xmlns="http://www.w3.org/2000/svg">
    <g clip-path="url(#prefix__clip0_14_456)">
        <path
            d="M22.99 13.334h-.08l-.103 8.717h.073c5.717 0 10.153 4.523 19.8 20.82l.583.99.04.066 5.4-8.126-.04-.064c-1.18-1.932-2.4-3.839-3.66-5.72a93.398 93.398 0 00-3.916-5.43c-6.377-8.146-11.71-11.253-18.097-11.253z"
            fill="url(#prefix__paint0_linear_14_456)" />
        <path
            d="M22.91 13.334c-6.41.033-12.087 4.193-16.177 10.567l-.033.056 7.513 4.104.037-.057c2.393-3.61 5.367-5.913 8.56-5.95h.07l.107-8.72h-.077z"
            fill="url(#prefix__paint1_linear_14_456)" />
        <path
            d="M6.73 23.9l-.037.057c-2.693 4.2-4.7 9.36-5.78 14.923l-.016.074 8.446 2 .014-.074c.9-4.89 2.62-9.426 4.853-12.816l.037-.057L6.73 23.9z"
            fill="url(#prefix__paint2_linear_14_456)" />
        <path
            d="M9.357 40.88l-8.444-2-.016.074c-.59 3.06-.89 6.17-.897 9.287v.077l8.66.776v-.077a41.97 41.97 0 01.7-8.133l-.003-.003z"
            fill="url(#prefix__paint3_linear_14_456)" />
        <path
            d="M8.923 51.79a18.207 18.207 0 01-.263-2.71v-.073L0 48.227v.08c-.01 1.846.153 3.69.487 5.506l8.45-1.95a14.466 14.466 0 01-.014-.073z"
            fill="url(#prefix__paint4_linear_14_456)" />
        <path
            d="M10.9 56.301c-.947-1.033-1.613-2.52-1.963-4.426l-.014-.07-8.45 1.95.014.07c.64 3.366 1.893 6.166 3.686 8.29l.047.056 6.727-5.816c-.017-.018-.03-.036-.047-.054z"
            fill="url(#prefix__paint5_linear_14_456)" />
        <path
            d="M35.933 32.18c-5.093 7.833-8.18 12.75-8.18 12.75-6.783 10.666-9.13 13.056-12.903 13.056a5.15 5.15 0 01-3.953-1.693l-6.724 5.813.047.057c2.48 2.897 5.973 4.503 10.3 4.503 6.543 0 11.247-3.093 19.613-17.766l5.887-10.434a137.528 137.528 0 00-4.087-6.286z"
            fill="white" />
        <path
            d="M45.007 19.82l-.054.053c-1.333 1.433-2.62 3.027-3.866 4.72a92.51 92.51 0 013.916 5.433c1.6-2.476 3.094-4.483 4.557-6.023l.053-.053-4.606-4.13z"
            fill="url(#prefix__paint6_linear_14_456)" />
        <path
            d="M69.727 19.044c-3.55-3.6-7.784-5.71-12.31-5.71-4.774 0-8.79 2.623-12.41 6.48l-.054.053 4.607 4.134.053-.057c2.384-2.49 4.694-3.733 7.254-3.733 2.753 0 5.333 1.3 7.566 3.583l.05.053 5.297-4.75-.053-.053z"
            fill="white" />
        <path
            d="M79.993 47.085c-.2-11.557-4.233-21.887-10.213-27.987l-.053-.053-5.294 4.747.05.053c4.5 4.64 7.59 13.267 7.87 23.237v.076h7.64v-.073z"
            fill="url(#prefix__paint7_linear_14_456)" />
        <path
            d="M79.993 47.166v-.076h-7.64v.073c.014.467.02.94.02 1.414 0 2.716-.403 4.913-1.226 6.5l-.037.073 5.693 5.94.044-.067C78.913 57.823 80 53.38 80 47.99c0-.277 0-.55-.007-.824z"
            fill="url(#prefix__paint8_linear_14_456)" />
        <path
            d="M71.147 55.066l-.037.067c-.713 1.34-1.73 2.233-3.057 2.623l2.594 8.207c.5-.169.987-.371 1.46-.607a11.86 11.86 0 004.553-4.06l.147-.216.04-.067-5.7-5.947z"
            fill="url(#prefix__paint9_linear_14_456)" />
        <path
            d="M66.4 57.976c-.873 0-1.64-.13-2.393-.466l-2.66 8.406c1.496.51 3.09.74 4.866.74 1.64 0 3.144-.243 4.507-.716l-2.6-8.207a5.751 5.751 0 01-1.72.243z"
            fill="url(#prefix__paint10_linear_14_456)" />
        <path
            d="M61.077 55.113l-.047-.056-6.12 6.38.053.056c2.124 2.274 4.154 3.684 6.457 4.457l2.657-8.4c-.97-.417-1.91-1.177-3-2.437z"
            fill="url(#prefix__paint11_linear_14_456)" />
        <path
            d="M61.03 55.05c-1.833-2.14-4.107-5.706-7.677-11.466L48.7 35.797l-.037-.066-5.4 8.126.04.067 3.297 5.56c3.197 5.366 5.8 9.246 8.31 11.95l.053.053 6.114-6.38a8.237 8.237 0 01-.047-.056z"
            fill="url(#prefix__paint12_linear_14_456)" />
    </g>
    <defs>
        <linearGradient id="prefix__paint0_linear_14_456" x1="1988.29" y1="2742.23" x2="382.406" y2="631.178"
            gradientUnits="userSpaceOnUse">
            <stop offset=".859" stop-color="white" />
        </linearGradient>
        <linearGradient id="prefix__paint1_linear_14_456" x1="359.632" y1="1130.71" x2="1505.46" y2="258.612"
            gradientUnits="userSpaceOnUse">
            <stop offset=".999" stop-color="white" />
        </linearGradient>
        <linearGradient id="prefix__paint2_linear_14_456" x1="511.708" y1="1543.81" x2="978.842" y2="364.335"
            gradientUnits="userSpaceOnUse">
            <stop offset=".265" stop-color="white" />
        </linearGradient>
        <linearGradient id="prefix__paint3_linear_14_456" x1="440.22" y1="960.021" x2="497.206" y2="200.371"
            gradientUnits="userSpaceOnUse">
            <stop offset=".994" stop-color="white" />
        </linearGradient>
        <linearGradient id="prefix__paint4_linear_14_456" x1="466.113" y1="373.935" x2="449.736" y2="251.685"
            gradientUnits="userSpaceOnUse">
            <stop offset="1" stop-color="white" />
        </linearGradient>
        <linearGradient id="prefix__paint5_linear_14_456" x1="395.203" y1="181.409" x2="645.192" y2="713.356"
            gradientUnits="userSpaceOnUse">
            <stop offset="1" stop-color="white" />
        </linearGradient>
        <linearGradient id="prefix__paint6_linear_14_456" x1="337.883" y1="722.867" x2="639.356" y2="304.686"
            gradientUnits="userSpaceOnUse">
            <stop offset=".914" stop-color="white" />
        </linearGradient>
        <linearGradient id="prefix__paint7_linear_14_456" x1="745.37" y1="194.332" x2="1415.01" y2="2665.5"
            gradientUnits="userSpaceOnUse">
            <stop offset="1" stop-color="white" />
        </linearGradient>
        <linearGradient id="prefix__paint8_linear_14_456" x1="604.999" y1="112.344" x2="212.136" y2="908.86"
            gradientUnits="userSpaceOnUse">
            <stop offset="1" stop-color="white" />
        </linearGradient>
        <linearGradient id="prefix__paint9_linear_14_456" x1="334.333" y1="701.456" x2="651.322" y2="484.881"
            gradientUnits="userSpaceOnUse">
            <stop offset="1" stop-color="white" />
        </linearGradient>
        <linearGradient id="prefix__paint10_linear_14_456" x1="252.872" y1="514.852" x2="831.01" y2="514.852"
            gradientUnits="userSpaceOnUse">
            <stop offset=".999" stop-color="white" />
        </linearGradient>
        <linearGradient id="prefix__paint11_linear_14_456" x1="424.354" y1="439.569" x2="749.859" y2="631.727"
            gradientUnits="userSpaceOnUse">
            <stop offset="1" stop-color="white" />
        </linearGradient>
        <linearGradient id="prefix__paint12_linear_14_456" x1="617.815" y1="543.626" x2="1681.06" y2="1884.54"
            gradientUnits="userSpaceOnUse">
            <stop offset="1" stop-color="white" />
        </linearGradient>
        <clipPath id="prefix__clip0_14_456">
            <path fill="white" d="M0 0h80v80H0z" />
        </clipPath>
    </defs>
</svg>