<svg width="81" height="81" fill="none" xmlns="http://www.w3.org/2000/svg">
    <g clip-path="url(#prefix__clip0_14_425)">
        <path fill-rule="evenodd" clip-rule="evenodd"
            d="M75.495 59.657c-4.68 4.249-10.698 8.025-17.995 11.532.148.101.29.192.439.28l.06.034.064.04c.73.415 1.418.621 2.164.621.75 0 1.438-.206 2.167-.62l.06-.038.065-.037c.472-.283.897-.6 1.66-1.235l.6-.5c.942-.783 1.439-1.154 2.11-1.539 1.026-.587 2.066-.897 3.203-.897s2.177.31 3.203.897l.078.048c.634.368 1.127.739 2.031 1.491l.601.5c.746.62 1.168.938 1.63 1.215l.095.057.06.034c.71.405 1.374.61 2.093.624h.074a1.047 1.047 0 110 2.086c-1.137 0-2.177-.31-3.206-.898a10.47 10.47 0 01-.304-.182l-.074-.047-.074-.044-.068-.047a18.073 18.073 0 01-1.654-1.273l-.536-.445a12.945 12.945 0 00-1.63-1.215l-.091-.058-.065-.033a4.24 4.24 0 00-2.163-.625c-.75 0-1.438.206-2.163.621l-.068.037-.06.038c-.473.283-.898.6-1.661 1.235l-.533.445c-.546.475-1.12.914-1.722 1.317l-.074.047-.074.047-.304.182a6.304 6.304 0 01-3.206.898c-1.137 0-2.174-.31-3.203-.898-.102-.059-.203-.12-.304-.182l-.074-.047-.074-.044-.088-.057c-.498-.34-.977-.706-1.434-1.097a1.04 1.04 0 01-.405-.338l-.331-.273a12.953 12.953 0 00-1.63-1.215l-.091-.058-.065-.033a4.24 4.24 0 00-2.163-.625c-.75 0-1.438.206-2.167.621l-.06.037-.064.038c-.473.283-.898.6-1.661 1.235l-.533.445c-.546.475-1.12.914-1.722 1.317l-.077.047-.074.047-.304.182c-.968.58-2.074.89-3.203.898-1.137 0-2.177-.31-3.203-.898a10.6 10.6 0 01-.304-.182l-.074-.047-.074-.044-.071-.047a18.074 18.074 0 01-1.654-1.273l-.533-.445a12.952 12.952 0 00-1.63-1.215l-.095-.058-.06-.033a4.24 4.24 0 00-2.167-.625c-.746 0-1.434.206-2.164.621l-.064.037-.06.038c-.476.283-.898.6-1.66 1.235l-.534.445c-.547.475-1.123.914-1.725 1.317l-.074.047-.074.047-.304.182a6.304 6.304 0 01-3.328.891c-2.517-.303-4.451-1.282-6.378-2.922l-.119-.102a39.339 39.339 0 01-.648-.587l-.661-.61-.361-.338-.037-.034a5.167 5.167 0 00-1.134-.854c-.101-.05-.21-.085-.321-.101h-.017c-.402.074-.803.199-1.218.371a1.037 1.037 0 01-.26.206l-.027.017a1.044 1.044 0 01-.425.115 19.105 19.105 0 00-2.613 1.748l-1.404 1.093-.185.145c-.357.277-.721.543-1.094.797-1.03.699-1.863 1.063-2.7 1.063a1.047 1.047 0 01-.034-2.086h.034c.304 0 .793-.209 1.479-.668l.135-.091c.26-.182.55-.395.91-.672l1.3-1.016.203-.158c.904-.695 1.707-1.26 2.463-1.704L5.4 63.77a1.043 1.043 0 01.857-1.522l68.469-4.405a1.043 1.043 0 01.77 1.813zm-3.773.472L7.995 64.226l1.428 2.73a7.778 7.778 0 011.31-.337c.057-.01.116-.016.175-.017.446 0 .878.108 1.303.314.516.247.992.604 1.63 1.181l.054.051.31.29.486.453.328.3c.22.203.422.385.54.486 1.637 1.41 3.2 2.22 5.245 2.484h.037a4.22 4.22 0 002.025-.58l.07-.038.065-.037.06-.037c.476-.283.898-.6 1.66-1.235l.602-.5c.941-.783 1.437-1.154 2.109-1.539 1.03-.587 2.066-.897 3.206-.897 1.134 0 2.174.31 3.2.897l.077.048c.635.368 1.131.739 2.035 1.491l.598.5c.75.62 1.168.938 1.633 1.215l.092.057.064.034c.725.418 1.417.624 2.163.624.75 0 1.438-.206 2.163-.62l.065-.038.06-.037c.476-.283.901-.6 1.664-1.235l.598-.5c.945-.783 1.44-1.154 2.112-1.539 1.026-.587 2.066-.897 3.203-.897s2.174.31 3.203.897l.084.051c.631.368 1.128.742 2.035 1.495 6.302-2.963 11.638-6.112 15.964-9.558l.071-.054zM12.33 6.838c8.167 3.49 17 9.838 24.121 17.658 8.302 9.112 13.868 19.67 15.65 30.878a1.046 1.046 0 01-1.421 1.13c-7.925-3.189-15.323-4.245-22.241-3.442-5.87.675-11.263 2.673-16.254 5.747-.992.615-2.093-.614-1.367-1.532 6.264-7.948 8.71-16.841 7.907-26.305-.658-7.735-3.48-15.558-7.708-22.642a1.047 1.047 0 011.31-1.492h.003zm21.556 8.18c6 1.833 13.136 7.095 19.514 14.32 6.696 7.588 11.988 16.653 14.671 25.59a1.046 1.046 0 01-1.353 1.283l-.074-.034-1.303-.52a35.88 35.88 0 00-.982-.378l-.054-.02c-2.295-.834-4.047-.982-6.561-.34a1.046 1.046 0 01-1.266-.737C51.901 37.54 44.121 24.557 32.991 16.875c-.983-.678-.243-2.204.897-1.856h-.003zm-19.464-4.906l.027.05c3.47 6.548 5.765 13.605 6.362 20.632.72 8.48-1.046 16.557-5.646 23.935l-.068.105.01-.004c4.044-1.96 8.337-3.27 12.91-3.82l.186-.02c6.685-.777 13.78.097 21.292 2.824l.223.085-.023-.132c-2.002-9.956-7.115-19.362-14.547-27.604l-.236-.263C28.887 19.285 21.6 13.75 14.614 10.206l-.193-.094zm26.73 10.928l.162.162c7.55 7.745 13.112 18.33 16.788 31.02l.128.445.074-.014c2.396-.448 4.334-.212 6.625.608l.091.034.223.08.155.062-.084-.247c-2.737-7.786-7.452-15.592-13.284-22.255l-.196-.22c-3.442-3.897-7.097-7.195-10.631-9.638l-.05-.037z"
            fill="white" />
    </g>
    <defs>
        <clipPath id="prefix__clip0_14_425">
            <path fill="white" d="M0 0h81v81H0z" />
        </clipPath>
    </defs>
</svg>