<svg width="102" height="100" fill="none" xmlns="http://www.w3.org/2000/svg">
    <g clip-path="url(#prefix__clip0_14_503)" fill="white">
        <path
            d="M48.2 66.372c-9.4 0-14-5.294-14-11.96 0-6.667 6.4-15.099 15.8-15.099s14 5.294 14 11.961c0 6.667-6.4 15.098-15.8 15.098zm.4-8.431c3.2 0 5.4-2.941 5.4-6.079 0-3.137-1.6-3.921-4.4-3.921-2.8 0-5.4 2.941-5.4 6.078 0 3.138 1.6 3.922 4.4 3.922zM74 65.784h-9.8l8-35.686H82l-8 35.49v.196z" />
        <path fill-rule="evenodd" clip-rule="evenodd"
            d="M19.2 66.372c-3 0-6-.98-7.6-3.333l-.6 2.745L0 71.47l1.2-5.686 8-35.686H19l-2.8 12.549c2.2-2.353 4.4-3.334 7.2-3.334 6 0 9.8 3.726 9.8 10.785s-4.6 16.274-14 16.274zM23 52.058c0 3.334-2.4 5.883-5.6 5.883-3.2 0-3.4-.588-4.4-1.765l1.6-6.47c1.2-1.177 2.4-1.765 4-1.765 2.4 0 4.4 1.764 4.4 4.313v-.196z" />
        <path
            d="M92.2 66.372c-5.6 0-9.8-1.96-9.8-6.47s0-1.373.2-1.96l2.2-9.609h-4.4l2-8.235h4.4l1.6-7.059 11-4.51-1.2 4.51-1.6 7.059h5.4l-2 8.235h-5.4l-1.4 6.275v1.176c0 1.177.8 2.157 2.4 2.157 1.6 0 1.2 0 1.4-.196v7.647c-1 .784-2.8.98-4.6.98h-.2z" />
    </g>
    <defs>
        <clipPath id="prefix__clip0_14_503">
            <path fill="white" d="M0 0h102v100H0z" />
        </clipPath>
    </defs>
</svg>