<svg width="75" height="75" viewBox="0 0 75 75" fill="none" xmlns="http://www.w3.org/2000/svg">
    <path
        d="M71.875 38.2656C71.875 35.4375 71.6406 33.375 71.1375 31.2344H38.2V43.9937H57.5312C57.1437 47.1625 55.0406 51.9375 50.3624 55.1469L50.2968 55.5719L60.7093 63.4781L61.4281 63.5469C68.0593 57.5531 71.875 48.7281 71.875 38.2656Z"
        fill="currentColor" />
    <path
        d="M38.2031 71.875C47.6718 71.875 55.6219 68.8187 61.4312 63.5469L50.3625 55.1469C47.4 57.1719 43.425 58.5844 38.2031 58.5844C33.8014 58.5848 29.51 57.2072 25.931 54.6448C22.352 52.0824 19.6649 48.4639 18.2469 44.2969L17.8343 44.3312L7.00623 52.5437L6.8656 52.9312C12.6344 64.1594 24.4844 71.875 38.2031 71.875Z"
        fill="currentColor" />
    <path
        d="M18.25 44.2973C17.4814 42.1131 17.0832 39.8158 17.0719 37.5004C17.0719 35.1316 17.5031 32.841 18.2 30.7035L18.1812 30.2441L7.21875 21.9004L6.85937 22.0691C4.40873 26.8441 3.12872 32.1333 3.125 37.5004C3.125 43.0379 4.4875 48.2723 6.86563 52.9316L18.25 44.2973Z"
        fill="currentColor" />
    <path
        d="M38.2031 16.4156C44.7906 16.4156 49.2312 19.2031 51.7656 21.5344L61.6625 12.0625C55.5844 6.525 47.6718 3.125 38.2031 3.125C24.4812 3.125 12.6344 10.8406 6.8656 22.0687L18.2094 30.7031C19.6396 26.5364 22.3349 22.9202 25.9191 20.3589C29.5034 17.7976 33.7978 16.419 38.2031 16.4156Z"
        fill="currentColor" />
</svg>