<svg width="77" height="77" viewBox="0 0 77 77" fill="none" xmlns="http://www.w3.org/2000/svg">
    <g clip-path="url(#clip0_14_473)">
        <path fill-rule="evenodd" clip-rule="evenodd"
            d="M21.698 35.9718C21.698 36.9215 21.8007 37.6883 21.9803 38.2498C22.1857 38.8144 22.4423 39.4304 22.8017 40.0978C22.93 40.2999 22.9813 40.5052 22.9813 40.6849C22.9813 40.9415 22.8273 41.1982 22.4937 41.4549L20.8799 42.5297C20.6848 42.6703 20.4528 42.7506 20.2125 42.7607C19.9559 42.7607 19.6992 42.6323 19.4457 42.4013C19.1011 42.0306 18.7928 41.6277 18.525 41.1982C18.2382 40.7062 17.9727 40.202 17.7293 39.6871C15.7337 42.042 13.2216 43.2195 10.1993 43.2195C8.04975 43.2195 6.33329 42.6067 5.07883 41.3779C3.82758 40.1459 3.18591 38.5096 3.18591 36.4595C3.18591 34.2843 3.95591 32.5133 5.51516 31.185C7.07762 29.8535 9.1502 29.1862 11.7875 29.1862C12.6601 29.1862 13.5552 29.2632 14.5017 29.3915C15.4514 29.5199 16.4267 29.7252 17.447 29.9562V28.0857C17.447 26.1383 17.0395 24.7812 16.2438 23.9887C15.4257 23.193 14.0429 22.8113 12.073 22.8113C11.1747 22.8113 10.2507 22.9107 9.3042 23.1417C8.35775 23.3727 7.43375 23.655 6.53862 24.0144C6.2464 24.1441 5.94637 24.2556 5.64029 24.348C5.50833 24.3906 5.37132 24.4154 5.23283 24.4218C4.8735 24.4218 4.69383 24.1652 4.69383 23.6294V22.3749C4.69383 21.9643 4.74516 21.6562 4.8735 21.4766C5.0673 21.2437 5.3136 21.06 5.59216 20.9408C6.61822 20.4313 7.70037 20.0437 8.81654 19.7858C10.1224 19.4515 11.4662 19.2886 12.8141 19.3013C15.862 19.3013 18.0886 19.9943 19.5227 21.3771C20.9344 22.7567 21.6467 24.8582 21.6467 27.6751V35.9718H21.698ZM11.303 39.8668C12.1468 39.8668 13.0162 39.7127 13.9402 39.4047C14.8794 39.0802 15.7177 38.5162 16.3722 37.7685C16.7858 37.2956 17.0845 36.7334 17.2448 36.1258C17.3956 35.513 17.5015 34.7687 17.5015 33.8993V32.8245C16.7242 32.635 15.937 32.4893 15.1434 32.3881C14.3453 32.2867 13.5416 32.2353 12.7371 32.2341C11.0207 32.2341 9.7662 32.5678 8.9192 33.2608C8.07541 33.9506 7.66795 34.9227 7.66795 36.2028C7.66795 37.406 7.97275 38.3043 8.61441 38.9171C9.2272 39.5588 10.1223 39.8668 11.303 39.8668ZM31.8684 42.6323C31.4064 42.6323 31.0984 42.5553 30.8931 42.3757C30.6877 42.2217 30.5081 41.8623 30.3541 41.3779L24.3385 21.5792C24.2214 21.2473 24.1439 20.9027 24.1075 20.5526C24.1075 20.1419 24.3128 19.9109 24.7202 19.9109H27.2324C27.7168 19.9109 28.0505 19.9911 28.227 20.1676C28.4355 20.3216 28.5895 20.6809 28.7403 21.1686L33.0459 38.1214L37.0402 21.1686C37.1686 20.6553 37.3226 20.3216 37.5247 20.1676C37.8325 19.9788 38.1909 19.8892 38.5514 19.9109H40.5983C41.086 19.9109 41.4196 19.9911 41.625 20.1676C41.8271 20.3216 42.01 20.6809 42.1094 21.1686L46.1551 38.3268L50.5858 21.1686C50.7398 20.6553 50.9195 20.3216 51.0992 20.1676C51.3964 19.9789 51.7456 19.8891 52.097 19.9109H54.4807C54.8882 19.9109 55.1224 20.1195 55.1224 20.5526C55.1224 20.6809 55.0935 20.8092 55.0679 20.9632C55.0277 21.1822 54.9675 21.397 54.8882 21.6049L48.7186 41.4003C48.5646 41.9137 48.3849 42.2441 48.1796 42.3981C47.8905 42.5836 47.5504 42.6734 47.2075 42.6548H45.0033C44.5221 42.6548 44.1852 42.5778 43.9767 42.3981C43.7745 42.2185 43.5949 41.8848 43.4954 41.3715L39.5267 24.855L35.5805 41.3458C35.4521 41.8591 35.3013 42.1928 35.0992 42.3725C34.8907 42.5521 34.5313 42.6291 34.0725 42.6291L31.8716 42.6323H31.8684ZM64.7731 43.3221C63.4416 43.3221 62.1102 43.1681 60.83 42.8633C59.5499 42.5553 58.5521 42.2217 57.8848 41.8367C57.4741 41.6089 57.195 41.3522 57.0923 41.1212C56.9923 40.8947 56.9399 40.6501 56.9383 40.4025V39.0968C56.9383 38.561 57.1437 38.3043 57.5255 38.3043C57.6795 38.3043 57.8335 38.33 57.9874 38.3813C58.1415 38.4326 58.3725 38.5353 58.6291 38.638C59.4986 39.023 60.445 39.3277 61.446 39.5331C62.4727 39.7384 63.4673 39.8411 64.4939 39.8411C66.1045 39.8411 67.3622 39.5588 68.2317 38.9941C68.6485 38.7423 68.9912 38.3846 69.225 37.9575C69.4589 37.5304 69.5755 37.049 69.5631 36.5622C69.5725 36.2325 69.5164 35.9042 69.398 35.5963C69.2796 35.2885 69.1012 35.0071 68.8733 34.7687C68.4113 34.2843 67.5387 33.8479 66.2842 33.4373L62.5722 32.2823C60.7017 31.6951 59.3189 30.8257 58.4751 29.6739C57.6493 28.6109 57.1981 27.3047 57.1918 25.9586C57.1918 24.8838 57.426 23.9374 57.8848 23.116C58.3468 22.2979 58.9596 21.5793 59.7296 21.0178C60.4996 20.4275 61.3658 19.9911 62.3925 19.6863C63.4192 19.3783 64.4939 19.25 65.6201 19.25C66.1815 19.25 66.7751 19.2757 67.3365 19.3527C67.9237 19.4297 68.4595 19.5323 68.9985 19.635C69.5118 19.7633 69.9995 19.8917 70.4582 20.0425C70.9202 20.1965 71.2796 20.3505 71.5362 20.5045C71.8386 20.6567 72.102 20.8762 72.3062 21.1461C72.4716 21.3953 72.5516 21.6914 72.534 21.9899V23.193C72.534 23.732 72.3287 24.0144 71.9437 24.0144C71.6028 23.9753 71.2728 23.8707 70.9716 23.7064C69.4244 23.0229 67.7476 22.6825 66.0564 22.7086C64.5966 22.7086 63.4416 22.9364 62.6492 23.424C61.8535 23.9117 61.446 24.6528 61.446 25.702C61.446 26.4206 61.7027 27.0366 62.216 27.5211C62.7294 28.0088 63.6726 28.4964 65.0297 28.9327L68.668 30.0813C70.5096 30.6717 71.8442 31.493 72.6367 32.5421C73.4292 33.5912 73.8142 34.7944 73.8142 36.1258C73.8142 37.2263 73.5832 38.2273 73.15 39.0968C72.6947 39.9735 72.0569 40.7425 71.2796 41.3522C70.4839 41.9939 69.5375 42.4527 68.437 42.7863C67.282 43.1425 66.0821 43.3221 64.7731 43.3221Z"
            fill="currentColor" />
        <path fill-rule="evenodd" clip-rule="evenodd"
            d="M1.21277 49.6498C12.0698 55.9478 25.4678 59.7657 39.3181 59.7657C48.6672 59.7657 58.9339 57.8182 68.3856 53.8239C69.7973 53.1822 70.9972 54.7447 69.6144 55.7713C61.1894 61.9955 48.9464 65.2969 38.423 65.2969C23.6711 65.2969 10.3822 59.8427 0.340103 50.7759C-0.452356 50.0605 0.263103 49.0852 1.21277 49.6498ZM76.7081 49.0082C77.6289 50.1632 76.4514 58.0749 71.9437 61.8639C71.2539 62.4543 70.5866 62.1463 70.8946 61.3795L71.456 59.971C72.5565 57.1477 74.0291 52.9191 73.1244 51.7737C72.0463 50.3942 66.0019 51.1096 63.2619 51.4433C62.4438 51.5459 62.3155 50.8273 63.0598 50.2883C67.8723 46.9099 75.7873 47.882 76.7081 49.0082Z"
            fill="currentColor" />
    </g>
    <defs>
        <clipPath id="clip0_14_473">
            <rect width="77" height="77" fill="currentColor" />
        </clipPath>
    </defs>
</svg>