<svg width="102" height="100" viewBox="0 0 102 100" fill="none" xmlns="http://www.w3.org/2000/svg">
    <g clip-path="url(#clip0_14_503)">
        <path
            d="M48.2 66.3722C38.8 66.3722 34.2 61.078 34.2 54.4114C34.2 47.7447 40.6 39.3133 50 39.3133C59.4 39.3133 64 44.6075 64 51.2741C64 57.9408 57.6 66.3722 48.2 66.3722ZM48.5999 57.9408C51.7999 57.9408 54 54.9996 54 51.8624C54 48.7251 52.3999 47.9408 49.5999 47.9408C46.7999 47.9408 44.2 50.882 44.2 54.0192C44.2 57.1565 45.7999 57.9408 48.5999 57.9408ZM74 65.7839H64.1999L72.1999 30.0977H82L74 65.5879V65.7839Z"
            fill="currentColor" />
        <path fill-rule="evenodd" clip-rule="evenodd"
            d="M19.2 66.3722C16.2 66.3722 13.2 65.3918 11.6 63.0388L11 65.7839L0 71.4702L1.2 65.7839L9.2 30.0977H19L16.2 42.6467C18.4 40.2937 20.6 39.3133 23.4 39.3133C29.4 39.3133 33.2 43.0388 33.2 50.0977C33.2 57.1565 28.6 66.3722 19.2 66.3722ZM23 52.0584C23 55.3918 20.6 57.9408 17.4 57.9408C14.2 57.9408 14 57.3526 13 56.1761L14.6 49.7055C15.8 48.529 17 47.9408 18.6 47.9408C21 47.9408 23 49.7055 23 52.2545V52.0584Z"
            fill="currentColor" />
        <path
            d="M92.2 66.3724C86.6 66.3724 82.4 64.4116 82.4 59.9018C82.4 55.392 82.4 58.5293 82.6 57.9411L84.8 48.3332H80.4L82.4 40.0979H86.8L88.4 33.0391L99.4 28.5293L98.2 33.0391L96.6 40.0979H102L100 48.3332H94.6L93.2 54.6077V55.7842C93.2 56.9607 94 57.9411 95.6 57.9411C97.2 57.9411 96.8 57.9411 97 57.745V65.392C96 66.1764 94.2 66.3724 92.4 66.3724H92.2Z"
            fill="currentColor" />
    </g>
    <defs>
        <clipPath id="clip0_14_503">
            <rect width="102" height="100" fill="currentColor" />
        </clipPath>
    </defs>
</svg>