<svg width="80" height="80" viewBox="0 0 80 80" fill="none" xmlns="http://www.w3.org/2000/svg">
    <g clip-path="url(#clip0_14_456)">
        <path
            d="M22.9901 13.334H22.9101L22.8068 22.0507H22.8801C28.5968 22.0507 33.0334 26.574 42.6801 42.8707L43.2634 43.8607L43.3034 43.9273L48.7034 35.8007L48.6634 35.7373C47.4834 33.8054 46.2631 31.8983 45.0034 30.0173C43.7632 28.1611 42.4568 26.3499 41.0868 24.5873C34.7101 16.4407 29.3768 13.334 22.9901 13.334Z"
            fill="url(#paint0_linear_14_456)" />
        <path
            d="M22.9101 13.334C16.5001 13.3673 10.8234 17.5273 6.73341 23.9007C6.72225 23.9195 6.71114 23.9384 6.70007 23.9573L14.2134 28.0607L14.2501 28.004C16.6434 24.394 19.6167 22.0907 22.8101 22.054H22.8801L22.9867 13.334H22.9101Z"
            fill="url(#paint1_linear_14_456)" />
        <path
            d="M6.73006 23.9004L6.69339 23.9571C4.00006 28.1571 1.9934 33.3171 0.913395 38.8804L0.896729 38.9537L9.34339 40.9537L9.35673 40.8804C10.2567 35.9904 11.9767 31.4537 14.2101 28.0637L14.2467 28.0071L6.73006 23.9004Z"
            fill="url(#paint2_linear_14_456)" />
        <path
            d="M9.35667 40.8809L0.913333 38.8809L0.896667 38.9542C0.306667 42.0142 0.00666667 45.1242 0 48.2409V48.3175L8.66 49.0942V49.0175C8.62849 46.2901 8.86293 43.5661 9.36 40.8842L9.35667 40.8809Z"
            fill="url(#paint3_linear_14_456)" />
        <path
            d="M8.92338 51.7899C8.76808 50.8944 8.68006 49.9885 8.66004 49.0799V49.0066L4.414e-05 48.2266V48.3066C-0.00967448 50.1533 0.153256 51.9968 0.486711 53.8132L8.93671 51.8632C8.9322 51.8388 8.92776 51.8143 8.92338 51.7899Z"
            fill="url(#paint4_linear_14_456)" />
        <path
            d="M10.9001 56.3014C9.95339 55.268 9.28672 53.7814 8.93672 51.8747L8.92339 51.8047L0.473389 53.7547L0.486722 53.8247C1.12672 57.1914 2.38006 59.9914 4.17339 62.1147L4.22006 62.1713L10.9467 56.3547C10.93 56.337 10.9166 56.3192 10.9001 56.3014Z"
            fill="url(#paint5_linear_14_456)" />
        <path
            d="M35.9333 32.1797C30.84 40.013 27.7533 44.9297 27.7533 44.9297C20.97 55.5964 18.6233 57.9864 14.85 57.9864C14.1079 58.0057 13.3705 57.8644 12.6881 57.5721C12.0058 57.2798 11.3947 56.8435 10.8967 56.293L4.17334 62.1064L4.22001 62.163C6.70001 65.0597 10.1933 66.6664 14.52 66.6664C21.0633 66.6664 25.7667 63.573 34.1333 48.8997L40.02 38.4664C38.714 36.334 37.3535 34.2377 35.9333 32.1797Z"
            fill="currentColor" />
        <path
            d="M45.0067 19.8197L44.9533 19.8731C43.62 21.3064 42.3333 22.8997 41.0867 24.5931C42.3467 26.2031 43.6467 28.0064 45.0033 30.0264C46.6033 27.5497 48.0967 25.5431 49.56 24.0031L49.6133 23.9497L45.0067 19.8197Z"
            fill="url(#paint6_linear_14_456)" />
        <path
            d="M69.7267 19.044C66.1767 15.444 61.9434 13.334 57.4167 13.334C52.6434 13.334 48.6267 15.9573 45.0067 19.814L44.9534 19.8673L49.56 24.0007L49.6134 23.944C51.9967 21.454 54.3067 20.2107 56.8667 20.2107C59.62 20.2107 62.2 21.5107 64.4334 23.794L64.4834 23.8473L69.78 19.0973L69.7267 19.044Z"
            fill="currentColor" />
        <path
            d="M79.9933 47.0849C79.7933 35.5283 75.76 25.1983 69.78 19.0983L69.7267 19.0449L64.4333 23.7916L64.4833 23.8449C68.9833 28.4849 72.0733 37.1116 72.3533 47.0816V47.1583H79.9933V47.0849Z"
            fill="url(#paint7_linear_14_456)" />
        <path
            d="M79.9934 47.1665V47.0898H72.3534V47.1632C72.3668 47.6298 72.3734 48.1032 72.3734 48.5765C72.3734 51.2932 71.9701 53.4898 71.1468 55.0765L71.1101 55.1498L76.8034 61.0898L76.8468 61.0232C78.9134 57.8232 80.0001 53.3798 80.0001 47.9898C80.0001 47.7132 80.0001 47.4398 79.9934 47.1665Z"
            fill="url(#paint8_linear_14_456)" />
        <path
            d="M71.1467 55.0664L71.11 55.1331C70.3967 56.4731 69.38 57.3664 68.0533 57.7564L70.6467 65.9631C71.1465 65.7942 71.6343 65.5915 72.1067 65.3564C73.9525 64.4233 75.5222 63.0236 76.66 61.2964L76.8067 61.0797L76.8467 61.0131L71.1467 55.0664Z"
            fill="url(#paint9_linear_14_456)" />
        <path
            d="M66.4 57.9764C65.5267 57.9764 64.76 57.8464 64.0067 57.5098L61.3467 65.9164C62.8433 66.4264 64.4367 66.6564 66.2133 66.6564C67.8533 66.6564 69.3567 66.4131 70.72 65.9398L68.12 57.7331C67.5634 57.8998 66.9867 57.9831 66.4 57.9764Z"
            fill="url(#paint10_linear_14_456)" />
        <path
            d="M61.0767 55.1133L61.03 55.0566L54.91 61.4366L54.9634 61.4933C57.0867 63.7666 59.1167 65.1766 61.42 65.95L64.0767 57.55C63.1067 57.1333 62.1667 56.3733 61.0767 55.1133Z"
            fill="url(#paint11_linear_14_456)" />
        <path
            d="M61.0301 55.0505C59.1968 52.9105 56.9234 49.3438 53.3534 43.5838L48.7001 35.7971L48.6634 35.7305L43.2634 43.8571L43.3034 43.9238L46.6001 49.4838C49.7968 54.8505 52.4001 58.7305 54.9101 61.4338L54.9634 61.4871L61.0768 55.1071C61.0611 55.0883 61.0456 55.0694 61.0301 55.0505Z"
            fill="url(#paint12_linear_14_456)" />
    </g>
    <defs>
        <linearGradient id="paint0_linear_14_456" x1="1988.29" y1="2742.23" x2="382.406" y2="631.178"
            gradientUnits="userSpaceOnUse">
            <stop offset="0.8591" stop-color="currentColor" />
        </linearGradient>
        <linearGradient id="paint1_linear_14_456" x1="359.632" y1="1130.71" x2="1505.46" y2="258.612"
            gradientUnits="userSpaceOnUse">
            <stop offset="0.9988" stop-color="currentColor" />
        </linearGradient>
        <linearGradient id="paint2_linear_14_456" x1="511.708" y1="1543.81" x2="978.842" y2="364.335"
            gradientUnits="userSpaceOnUse">
            <stop offset="0.265" stop-color="currentColor" />
        </linearGradient>
        <linearGradient id="paint3_linear_14_456" x1="440.22" y1="960.021" x2="497.206" y2="200.371"
            gradientUnits="userSpaceOnUse">
            <stop offset="0.9943" stop-color="currentColor" />
        </linearGradient>
        <linearGradient id="paint4_linear_14_456" x1="466.113" y1="373.935" x2="449.736" y2="251.685"
            gradientUnits="userSpaceOnUse">
            <stop offset="1" stop-color="currentColor" />
        </linearGradient>
        <linearGradient id="paint5_linear_14_456" x1="395.203" y1="181.409" x2="645.192" y2="713.356"
            gradientUnits="userSpaceOnUse">
            <stop offset="1" stop-color="currentColor" />
        </linearGradient>
        <linearGradient id="paint6_linear_14_456" x1="337.883" y1="722.867" x2="639.356" y2="304.686"
            gradientUnits="userSpaceOnUse">
            <stop offset="0.9141" stop-color="currentColor" />
        </linearGradient>
        <linearGradient id="paint7_linear_14_456" x1="745.37" y1="194.332" x2="1415.01" y2="2665.5"
            gradientUnits="userSpaceOnUse">
            <stop offset="0.9995" stop-color="currentColor" />
        </linearGradient>
        <linearGradient id="paint8_linear_14_456" x1="604.999" y1="112.344" x2="212.136" y2="908.86"
            gradientUnits="userSpaceOnUse">
            <stop offset="1" stop-color="currentColor" />
        </linearGradient>
        <linearGradient id="paint9_linear_14_456" x1="334.333" y1="701.456" x2="651.322" y2="484.881"
            gradientUnits="userSpaceOnUse">
            <stop offset="1" stop-color="currentColor" />
        </linearGradient>
        <linearGradient id="paint10_linear_14_456" x1="252.872" y1="514.852" x2="831.01" y2="514.852"
            gradientUnits="userSpaceOnUse">
            <stop offset="0.9994" stop-color="currentColor" />
        </linearGradient>
        <linearGradient id="paint11_linear_14_456" x1="424.354" y1="439.569" x2="749.859" y2="631.727"
            gradientUnits="userSpaceOnUse">
            <stop offset="1" stop-color="currentColor" />
        </linearGradient>
        <linearGradient id="paint12_linear_14_456" x1="617.815" y1="543.626" x2="1681.06" y2="1884.54"
            gradientUnits="userSpaceOnUse">
            <stop offset="1" stop-color="currentColor" />
        </linearGradient>
        <clipPath id="clip0_14_456">
            <rect width="80" height="80" fill="currentColor" />
        </clipPath>
    </defs>
</svg>