<svg width="66" height="66" viewBox="0 0 66 66" fill="none" xmlns="http://www.w3.org/2000/svg">
    <path fill-rule="evenodd" clip-rule="evenodd"
        d="M39.193 22.6875H54.659C54.901 22.6875 55.143 22.704 55.374 22.737L39.2315 38.8795C39.197 38.6381 39.1795 38.3946 39.1792 38.1508V22.6875H32.9917V38.1508C32.9914 39.6405 33.2846 41.1158 33.8545 42.4922C34.4245 43.8687 35.26 45.1194 36.3134 46.1728C37.3669 47.2262 38.6176 48.0618 39.994 48.6317C41.3705 49.2017 42.8457 49.4949 44.3355 49.4945H59.8015V43.307H44.3355C44.088 43.307 43.8433 43.2905 43.6068 43.2575L59.7603 27.1012C59.7962 27.3471 59.8146 27.5953 59.8152 27.8438V43.307H66V27.841C66 26.3517 65.7067 24.8769 65.1367 23.501C64.5668 22.125 63.7314 20.8748 62.6783 19.8217C61.6252 18.7686 60.375 17.9332 58.999 17.3633C57.6231 16.7933 56.1483 16.5 54.659 16.5H39.193V22.6875ZM0 20.625V20.6415L21.1365 47.5585C23.6775 50.7925 28.8722 48.9967 28.8722 44.8827V20.625H22.6875V39.5175L7.854 20.625H0Z"
        fill="currentColor" />
</svg>