<svg width="81" height="81" viewBox="0 0 81 81" fill="none" xmlns="http://www.w3.org/2000/svg">
    <g clip-path="url(#clip0_14_425)">
        <path fill-rule="evenodd" clip-rule="evenodd"
            d="M75.4954 59.6566C70.8142 63.9057 64.7966 67.6823 57.4999 71.1889C57.6484 71.2902 57.7901 71.3813 57.9386 71.4691L57.9994 71.5028L58.0635 71.5433C58.7925 71.9585 59.481 72.1643 60.2269 72.1643C60.9761 72.1643 61.6646 71.9585 62.3936 71.5433L62.4544 71.5062L62.5185 71.4691C62.991 71.1856 63.4163 70.8683 64.179 70.2338L64.7797 69.7343C65.7214 68.9513 66.2175 68.5801 66.8891 68.1953C67.9151 67.6081 68.9546 67.2976 70.092 67.2976C71.2294 67.2976 72.2689 67.6081 73.2949 68.1953L73.3725 68.2426C74.007 68.6105 74.4997 68.9817 75.4042 69.7343L76.005 70.2338C76.7509 70.8548 77.1728 71.1721 77.6351 71.4488L77.7296 71.5062L77.7904 71.54C78.4991 71.945 79.164 72.1508 79.8829 72.1643H79.9571C80.1011 72.1527 80.246 72.1711 80.3825 72.2182C80.5191 72.2654 80.6444 72.3403 80.7506 72.4383C80.8568 72.5362 80.9415 72.6551 80.9995 72.7875C81.0574 72.9198 81.0873 73.0627 81.0873 73.2072C81.0873 73.3517 81.0574 73.4946 80.9995 73.6269C80.9415 73.7593 80.8568 73.8782 80.7506 73.9761C80.6444 74.0741 80.5191 74.149 80.3825 74.1962C80.246 74.2433 80.1011 74.2617 79.9571 74.2501C78.8197 74.2501 77.7802 73.9396 76.7509 73.3523C76.6486 73.2933 76.5473 73.2325 76.4471 73.1701L76.3729 73.1228L76.2986 73.0789L76.2311 73.0317C75.6558 72.6398 75.1037 72.2149 74.5774 71.7593L74.0407 71.3138C73.5301 70.8667 72.985 70.4605 72.4106 70.0988L72.3195 70.0415L72.2554 70.0077C71.6037 69.6084 70.8562 69.3926 70.092 69.3833C69.3427 69.3833 68.6543 69.5892 67.9286 70.0043L67.8611 70.0415L67.8004 70.0786C67.3279 70.3621 66.9026 70.6793 66.1399 71.3138L65.6066 71.7593C65.0609 72.2336 64.4861 72.6732 63.8854 73.0756L63.8111 73.1228L63.7369 73.1701L63.4331 73.3523C62.4641 73.9335 61.3568 74.2436 60.2269 74.2501C59.0895 74.2501 58.0534 73.9396 57.024 73.3523C56.9217 73.2933 56.8205 73.2325 56.7202 73.1701L56.646 73.1228L56.5717 73.0789L56.484 73.0216C55.9862 72.6824 55.5073 72.3163 55.0496 71.9247C54.8879 71.8489 54.7484 71.7326 54.6446 71.5872L54.3139 71.3138C53.8032 70.8667 53.2581 70.4605 52.6837 70.0988L52.5926 70.0415L52.5285 70.0077C51.8768 69.6084 51.1293 69.3926 50.3651 69.3833C49.6159 69.3833 48.9274 69.5892 48.1984 70.0043L48.1376 70.0415L48.0735 70.0786C47.601 70.3621 47.1757 70.6793 46.413 71.3138L45.8797 71.7593C45.3341 72.2336 44.7592 72.6732 44.1585 73.0756L44.0809 73.1228L44.0066 73.1701L43.7029 73.3523C42.7349 73.9329 41.6287 74.2429 40.5 74.2501C39.3626 74.2501 38.3231 73.9396 37.2971 73.3523C37.1949 73.2933 37.0936 73.2325 36.9934 73.1701L36.9191 73.1228L36.8449 73.0789L36.774 73.0317C36.1987 72.6398 35.6465 72.2149 35.1202 71.7593L34.587 71.3138C34.0763 70.8667 33.5313 70.4605 32.9569 70.0988L32.8624 70.0415L32.8016 70.0077C32.149 69.6078 31.4002 69.392 30.6349 69.3833C29.889 69.3833 29.2005 69.5892 28.4715 70.0043L28.4074 70.0415L28.3466 70.0786C27.8707 70.3621 27.4489 70.6793 26.6861 71.3138L26.1529 71.7593C25.6061 72.2337 25.0301 72.6733 24.4282 73.0756L24.354 73.1228L24.2797 73.1701L23.976 73.3523C22.971 73.9525 21.8187 74.261 20.6482 74.2433C18.1305 73.9396 16.1966 72.9608 14.2695 71.3206L14.1514 71.2193C13.9927 71.0809 13.7531 70.8616 13.5034 70.6321L12.8419 70.0212L12.4807 69.6837L12.4436 69.6499C12.1067 69.3145 11.7251 69.0272 11.3096 68.7961C11.2088 68.7454 11.1006 68.7112 10.989 68.6948H10.9721C10.5705 68.7691 10.1689 68.894 9.75375 69.0661C9.6787 69.1482 9.59095 69.2177 9.49387 69.2719L9.46687 69.2888C9.33491 69.3569 9.18993 69.396 9.04162 69.4036C8.12432 69.9136 7.25062 70.4983 6.42937 71.1518L5.02537 72.2453L4.83975 72.3904C4.48347 72.6671 4.1188 72.9327 3.74625 73.187C2.71687 73.8856 1.88325 74.2501 1.04625 74.2501C0.783519 74.2336 0.536645 74.1187 0.354867 73.9283C0.173088 73.7379 0.0697648 73.486 0.0655057 73.2228C0.0612467 72.9596 0.156365 72.7044 0.331888 72.5083C0.507411 72.3121 0.750439 72.1893 1.0125 72.1643H1.04625C1.35 72.1643 1.83937 71.9551 2.5245 71.4961L2.6595 71.405C2.91937 71.2227 3.20962 71.0101 3.57075 70.7333L4.87012 69.7174L5.07262 69.5588C5.97712 68.8636 6.78037 68.2999 7.53637 67.8545L5.4 63.7707C5.31992 63.6168 5.27949 63.4454 5.28235 63.272C5.28522 63.0986 5.3313 62.9286 5.41641 62.7775C5.50153 62.6264 5.62299 62.4988 5.76981 62.4065C5.91663 62.3141 6.08417 62.2599 6.25725 62.2486L74.7259 57.8442C74.9417 57.8301 75.1566 57.8834 75.3408 57.9969C75.525 58.1103 75.6693 58.2782 75.7539 58.4773C75.8384 58.6764 75.8589 58.8969 75.8126 59.1081C75.7663 59.3194 75.6554 59.5111 75.4954 59.6566ZM71.7221 60.1291L7.99537 64.2263L9.423 66.9567C9.855 66.8048 10.287 66.6935 10.7325 66.6192C10.7904 66.6087 10.8491 66.603 10.908 66.6023C11.3535 66.6023 11.7855 66.7103 12.2107 66.9162C12.7271 67.1626 13.203 67.5203 13.8409 68.0975L13.8949 68.1481L14.2054 68.4383L14.6914 68.8906L15.0187 69.1909C15.2381 69.3935 15.4406 69.5757 15.5588 69.677C17.1956 71.0877 18.7582 71.8977 20.8035 72.161H20.8406C21.5539 72.1418 22.2506 71.9421 22.8656 71.5805L22.9365 71.5433L23.0006 71.5062L23.0614 71.4691C23.5373 71.1856 23.9591 70.8683 24.7219 70.2338L25.3226 69.7343C26.2642 68.9513 26.7604 68.5801 27.432 68.1953C28.4614 67.6081 29.4975 67.2976 30.6382 67.2976C31.7722 67.2976 32.8117 67.6081 33.8377 68.1953L33.9154 68.2426C34.5499 68.6105 35.046 68.9817 35.9505 69.7343L36.5479 70.2338C37.2971 70.8548 37.7156 71.1721 38.1814 71.4488L38.2725 71.5062L38.3366 71.54C39.0622 71.9585 39.7541 72.1643 40.5 72.1643C41.2492 72.1643 41.9377 71.9585 42.6634 71.5433L42.7275 71.5062L42.7882 71.4691C43.2641 71.1856 43.6894 70.8683 44.4521 70.2338L45.0495 69.7343C45.9945 68.9513 46.4906 68.5801 47.1622 68.1953C48.1882 67.6081 49.2277 67.2976 50.3651 67.2976C51.5025 67.2976 52.5386 67.6081 53.568 68.1953L53.6524 68.246C54.2835 68.6138 54.7796 68.9884 55.6875 69.7411C61.9886 66.7778 67.3245 63.629 71.6512 60.1831L71.7221 60.1291ZM12.3289 6.83782C20.4964 10.3276 29.3287 16.6759 36.45 24.4958C44.7525 33.6083 50.3179 44.1653 52.0999 55.3737C52.1278 55.5559 52.1071 55.7421 52.0399 55.9137C51.9727 56.0853 51.8613 56.2361 51.7171 56.3508C51.5729 56.4656 51.401 56.5402 51.2187 56.5672C51.0364 56.5941 50.8502 56.5724 50.679 56.5043C42.7545 53.315 35.3565 52.2586 28.4377 53.0618C22.5686 53.7368 17.1754 55.7348 12.1837 58.8094C11.1915 59.4237 10.0912 58.1952 10.8169 57.2772C17.0809 49.3291 19.5277 40.4359 18.7245 30.9724C18.0664 23.2369 15.2449 15.4137 11.016 8.32957C10.9053 8.13996 10.8571 7.92034 10.8781 7.7018C10.8992 7.48327 10.9884 7.27689 11.1333 7.11189C11.2781 6.94689 11.4712 6.83164 11.6852 6.78246C11.8991 6.73327 12.1231 6.75264 12.3255 6.83782H12.3289ZM33.885 15.0188C39.8857 16.8514 47.0205 22.1131 53.3992 29.3389C60.0952 36.9259 65.3873 45.9912 68.0704 54.9282C68.1251 55.1133 68.1275 55.3098 68.0774 55.4962C68.0274 55.6826 67.9268 55.8514 67.7867 55.9842C67.6466 56.1169 67.4726 56.2083 67.2838 56.2483C67.095 56.2883 66.8988 56.2753 66.717 56.2107L66.6427 56.177L65.34 55.6572C65.0145 55.5264 64.6871 55.4004 64.3579 55.2792L64.3039 55.2589C62.0089 54.4253 60.2572 54.2768 57.7429 54.9181C57.4776 54.9853 57.1965 54.946 56.9599 54.8084C56.7234 54.6709 56.5501 54.4461 56.4772 54.1823C51.9007 37.5402 44.1214 24.5566 32.9906 16.8751C32.0085 16.1967 32.7476 14.6712 33.8884 15.0188H33.885ZM14.4214 10.1116L14.4484 10.1622C17.9179 16.7097 20.2129 23.7668 20.8102 30.7936C21.5291 39.2749 19.764 47.3513 15.1639 54.7291L15.0964 54.8337L15.1065 54.8303C19.1497 52.8695 23.4427 51.56 28.0159 51.0098L28.2015 50.9896C34.8874 50.2133 41.9816 51.0874 49.4944 53.8144L49.7171 53.8988L49.6935 53.7672C47.6921 43.8109 42.579 34.4048 35.1472 26.1631L34.911 25.8998C28.8866 19.2848 21.6 13.7498 14.6137 10.2061L14.4214 10.1116ZM41.1514 21.0398L41.3134 21.2018C48.8632 28.9474 54.4252 39.5314 58.1006 52.2215L58.2289 52.667L58.3031 52.6535C60.6994 52.2046 62.6366 52.4408 64.9283 53.261L65.0194 53.2947L65.2421 53.3757L65.3974 53.4365L65.313 53.1901C62.5759 45.4039 57.861 37.5976 52.029 30.9353L51.8332 30.7159C48.3907 26.8178 44.7356 23.5204 41.202 21.0769L41.1514 21.0398Z"
            fill="currentColor" />
    </g>
    <defs>
        <clipPath id="clip0_14_425">
            <rect width="81" height="81" fill="currentColor" />
        </clipPath>
    </defs>
</svg>