<svg width="66" height="66" fill="none" xmlns="http://www.w3.org/2000/svg">
    <path fill-rule="evenodd" clip-rule="evenodd"
        d="M39.193 22.688h15.466c.242 0 .484.016.715.049L39.231 38.88a5.196 5.196 0 01-.052-.73V22.689h-6.187V38.15a11.343 11.343 0 0011.344 11.343H59.8v-6.187H44.337c-.248 0-.493-.017-.73-.05L59.76 27.102c.036.246.055.494.055.743v15.463H66V27.841A11.34 11.34 0 0054.659 16.5H39.193v6.188zM0 20.625v.017l21.137 26.917c2.54 3.233 7.735 1.438 7.735-2.676V20.625h-6.184v18.892L7.854 20.625H0z"
        fill="white" />
</svg>