<svg width="77" height="77" fill="none" xmlns="http://www.w3.org/2000/svg">
    <g clip-path="url(#prefix__clip0_14_473)" fill-rule="evenodd" clip-rule="evenodd" fill="white">
        <path
            d="M21.698 35.972c0 .95.103 1.716.282 2.278.206.564.462 1.18.822 1.848.128.202.18.407.18.587 0 .256-.155.513-.488.77L20.88 42.53a1.23 1.23 0 01-.668.23c-.256 0-.513-.128-.766-.359a7.928 7.928 0 01-.921-1.203 19.821 19.821 0 01-.796-1.51c-1.995 2.354-4.507 3.531-7.53 3.531-2.15 0-3.866-.612-5.12-1.841-1.251-1.232-1.893-2.868-1.893-4.919 0-2.175.77-3.946 2.33-5.274 1.562-1.331 3.634-1.999 6.271-1.999.873 0 1.768.077 2.715.206.95.128 1.925.333 2.945.564v-1.87c0-1.948-.407-3.305-1.203-4.097-.818-.796-2.201-1.178-4.171-1.178-.898 0-1.822.1-2.769.33-.946.232-1.87.514-2.765.873a7.7 7.7 0 01-.899.334 1.56 1.56 0 01-.407.074c-.36 0-.54-.257-.54-.793v-1.254c0-.41.052-.719.18-.898.194-.233.44-.417.72-.536a14.681 14.681 0 013.224-1.155 15.53 15.53 0 013.997-.485c3.048 0 5.275.693 6.709 2.076 1.411 1.38 2.124 3.481 2.124 6.298v8.297h.051zm-10.395 3.895c.844 0 1.713-.154 2.637-.462a5.71 5.71 0 002.432-1.636 4.074 4.074 0 00.873-1.643c.15-.613.256-1.357.256-2.227v-1.075a21.367 21.367 0 00-2.358-.436 19.32 19.32 0 00-2.406-.154c-1.716 0-2.97.334-3.818 1.027-.844.69-1.251 1.662-1.251 2.942 0 1.203.305 2.101.946 2.714.613.642 1.508.95 2.689.95zm20.565 2.765c-.462 0-.77-.077-.975-.256-.205-.154-.385-.514-.539-.998L24.34 21.579a4.477 4.477 0 01-.231-1.026c0-.411.205-.642.612-.642h2.512c.485 0 .819.08.995.257.209.154.363.513.513 1l4.306 16.953L37.04 21.17c.129-.514.283-.847.485-1.001a1.761 1.761 0 011.026-.257h2.047c.488 0 .822.08 1.027.257.202.154.385.513.484 1l4.046 17.159 4.43-17.158c.155-.514.334-.847.514-1.001.297-.19.647-.279.998-.257h2.384c.407 0 .641.208.641.642 0 .128-.029.256-.054.41-.04.22-.1.434-.18.642L48.718 41.4c-.153.514-.333.844-.538.998-.29.186-.63.275-.972.257h-2.205c-.48 0-.818-.077-1.026-.257-.202-.18-.382-.513-.482-1.027l-3.968-16.516-3.947 16.49c-.128.514-.279.848-.48 1.028-.21.18-.569.256-1.028.256l-2.2.003h-.004zm32.905.69c-1.331 0-2.663-.154-3.943-.459-1.28-.308-2.278-.641-2.945-1.026-.41-.228-.69-.485-.793-.716a1.808 1.808 0 01-.154-.718v-1.306c0-.536.206-.793.587-.793.154 0 .309.026.462.077.154.052.386.154.642.257.87.385 1.816.69 2.817.895 1.027.205 2.021.308 3.048.308 1.61 0 2.868-.282 3.738-.847a2.759 2.759 0 001.331-2.432 2.493 2.493 0 00-.69-1.793c-.462-.485-1.334-.921-2.589-1.332l-3.712-1.155c-1.87-.587-3.253-1.456-4.097-2.608a6.103 6.103 0 01-1.283-3.715c0-1.075.234-2.022.693-2.843a6.568 6.568 0 011.845-2.098c.77-.59 1.636-1.027 2.663-1.332 1.026-.308 2.1-.436 3.227-.436.561 0 1.155.026 1.716.103.588.077 1.124.18 1.663.282.513.128 1 .257 1.46.407.461.154.82.308 1.077.462.303.153.566.372.77.642.166.25.246.545.228.844v1.203c0 .539-.205.821-.59.821-.341-.039-.671-.143-.972-.308a11.716 11.716 0 00-4.916-.997c-1.46 0-2.614.227-3.407.715-.796.488-1.203 1.229-1.203 2.278 0 .719.257 1.335.77 1.82.513.487 1.457.974 2.814 1.41l3.638 1.15c1.842.59 3.176 1.411 3.969 2.46.792 1.05 1.177 2.252 1.177 3.584 0 1.1-.23 2.101-.664 2.97a6.92 6.92 0 01-1.87 2.256c-.796.642-1.743 1.1-2.843 1.434a12.262 12.262 0 01-3.664.536zM1.213 49.65c10.857 6.298 24.255 10.116 38.105 10.116 9.35 0 19.616-1.948 29.068-5.942 1.411-.642 2.611.92 1.228 1.947-8.425 6.224-20.668 9.526-31.191 9.526-14.752 0-28.04-5.454-38.083-14.521-.792-.716-.077-1.69.873-1.126zm75.495-.642c.92 1.155-.257 9.067-4.764 12.856-.69.59-1.357.282-1.05-.484l.562-1.409c1.1-2.823 2.573-7.052 1.668-8.197-1.078-1.38-7.122-.664-9.862-.33-.818.102-.947-.617-.202-1.156 4.812-3.378 12.727-2.406 13.648-1.28z" />
    </g>
    <defs>
        <clipPath id="prefix__clip0_14_473">
            <path fill="white" d="M0 0h77v77H0z" />
        </clipPath>
    </defs>
</svg>